<?xml version="1.0" encoding="UTF-8"?>
<svg version="1.1" xmlns="http://www.w3.org/2000/svg" width="279" height="279">
<path d="M0 0 C92.07 0 184.14 0 279 0 C279 92.07 279 184.14 279 279 C186.93 279 94.86 279 0 279 C0 186.93 0 94.86 0 0 Z " fill="#090A0E" transform="translate(0,0)"/>
<path d="M0 0 C0.80373047 -0.01160156 1.60746094 -0.02320312 2.43554688 -0.03515625 C8.32638186 -0.006721 13.22101008 1.2159455 18.6875 3.375 C19.0175 2.385 19.3475 1.395 19.6875 0.375 C22.62652349 0.24018241 25.55939559 0.14100584 28.5 0.0625 C29.75006836 -0.0003418 29.75006836 -0.0003418 31.02539062 -0.06445312 C33.34396072 -0.11101076 35.4155464 -0.0948911 37.6875 0.375 C40.6322053 3.72743373 41.17869977 6.99931804 41.6875 11.375 C42.6775 11.375 43.6675 11.375 44.6875 11.375 C45.368125 13.045625 45.368125 13.045625 46.0625 14.75 C47.41215986 18.33699008 47.41215986 18.33699008 49.6875 20.375 C52.05433527 17.58551558 54.03187251 14.84234298 55.75 11.625 C57.6875 8.375 57.6875 8.375 60.6875 7.375 C60.666875 6.405625 60.64625 5.43625 60.625 4.4375 C60.6875 1.375 60.6875 1.375 61.6875 0.375 C65.86856056 -0.01162383 70.05468338 -0.11011456 74.25073242 -0.19482422 C75.6585464 -0.23139082 77.06601726 -0.28587402 78.47241211 -0.35888672 C90.17007996 -0.95692982 90.17007996 -0.95692982 93.91040039 2.32617188 C95.43499879 4.6208374 96.57930767 6.85854925 97.6875 9.375 C100.42308559 13.02244746 103.42186974 16.19530738 106.6875 19.375 C108.6875 21.375 108.6875 21.375 108.6875 25.375 C109.3475 25.375 110.0075 25.375 110.6875 25.375 C111.6775 26.86 111.6775 26.86 112.6875 28.375 C112.72508423 27.20142944 112.72508423 27.20142944 112.76342773 26.00415039 C112.87899788 22.48175051 113.00189949 18.9596444 113.125 15.4375 C113.16431641 14.20580078 113.20363281 12.97410156 113.24414062 11.70507812 C113.28603516 10.53525391 113.32792969 9.36542969 113.37109375 8.16015625 C113.42608032 6.53412476 113.42608032 6.53412476 113.48217773 4.87524414 C113.6875 2.375 113.6875 2.375 114.6875 1.375 C116.83144519 1.2758243 118.97876732 1.2452985 121.125 1.25 C122.88650391 1.24613281 122.88650391 1.24613281 124.68359375 1.2421875 C127.6875 1.375 127.6875 1.375 129.6875 2.375 C129.6875 9.635 129.6875 16.895 129.6875 24.375 C130.3475 24.375 131.0075 24.375 131.6875 24.375 C131.72875 23.385 131.77 22.395 131.8125 21.375 C132.83847542 14.32141896 138.57570213 8.91690626 143.87890625 4.55859375 C146.69560105 2.7152708 149.41418153 2.09513006 152.6875 1.375 C153.0175 1.045 153.3475 0.715 153.6875 0.375 C164.8338014 -0.59493493 175.41925506 0.44550331 184.25 7.8125 C190.72077602 14.09532817 191.94968431 19.74689905 192.125 28.5625 C192.22823458 36.22461947 190.68833417 40.47373863 185.6875 46.375 C185.3575 47.365 185.0275 48.355 184.6875 49.375 C183.6975 49.705 182.7075 50.035 181.6875 50.375 C181.3575 51.035 181.0275 51.695 180.6875 52.375 C181.76 52.045 182.8325 51.715 183.9375 51.375 C187.6875 50.375 187.6875 50.375 191.6875 50.375 C192.6775 54.83 192.6775 54.83 193.6875 59.375 C187.49366103 62.57182011 181.73562458 64.96199494 174.6875 63.375 C173.89214844 62.70597656 173.09679687 62.03695312 172.27734375 61.34765625 C169.03519893 58.87814926 167.5053058 59.03442152 163.5 59.3125 C153.07280512 59.58287822 146.96718058 57.33380358 139.3046875 50.21484375 C137.6875 48.375 137.6875 48.375 137.6875 46.375 C137.0275 46.375 136.3675 46.375 135.6875 46.375 C132.01741991 42.85783991 131.55844205 38.17030445 130.6875 33.375 C129.70106362 38.49783766 129.37782947 43.55248929 129.125 48.75 C129.06022461 49.99716797 129.06022461 49.99716797 128.99414062 51.26953125 C128.88888195 53.30453228 128.78776928 55.33974703 128.6875 57.375 C117.313158 58.43818033 117.313158 58.43818033 113.734375 56.09765625 C112.22504562 54.26904565 110.97363119 52.36606608 109.6875 50.375 C108.43355048 48.96397956 107.16235818 47.56810746 105.875 46.1875 C102.80038298 42.85496809 102.80038298 42.85496809 102.17578125 40.19921875 C102.01464844 39.59722656 101.85351562 38.99523437 101.6875 38.375 C100.2025 37.88 100.2025 37.88 98.6875 37.375 C97.0375 34.735 95.3875 32.095 93.6875 29.375 C93.3575 38.615 93.0275 47.855 92.6875 57.375 C90.233125 57.395625 87.77875 57.41625 85.25 57.4375 C84.0889978 57.45115601 84.0889978 57.45115601 82.90454102 57.46508789 C81.16528283 57.47224913 79.42604696 57.42524702 77.6875 57.375 C76.13091518 55.81841518 76.52440601 54.29632264 76.48217773 52.13061523 C76.4522599 50.77932777 76.4522599 50.77932777 76.42173767 49.40074158 C76.40502518 48.42158279 76.38831268 47.44242401 76.37109375 46.43359375 C76.35031265 45.43618668 76.32953156 44.4387796 76.30812073 43.41114807 C76.24251363 40.21167157 76.18368866 37.01211018 76.125 33.8125 C76.08182538 31.64907961 76.03821145 29.48566794 75.99414062 27.32226562 C75.88682097 22.00660126 75.78507573 16.69085166 75.6875 11.375 C75.29135498 12.20318237 75.29135498 12.20318237 74.88720703 13.0480957 C74.53513184 13.77085693 74.18305664 14.49361816 73.8203125 15.23828125 C73.47371582 15.95540283 73.12711914 16.67252441 72.77001953 17.41137695 C71.43598675 19.83122937 69.66453769 21.46386356 67.6875 23.375 C67.39230469 24.16519531 67.09710938 24.95539063 66.79296875 25.76953125 C65.59455479 28.59406168 64.32194282 29.78354713 62.125 31.875 C56.20538777 39.03502891 57.63124645 49.57533725 57.6875 58.375 C52.4075 58.375 47.1275 58.375 41.6875 58.375 C41.63142578 56.18810547 41.63142578 56.18810547 41.57421875 53.95703125 C41.50854843 52.0338289 41.44210145 50.11065295 41.375 48.1875 C41.35244141 47.22779297 41.32988281 46.26808594 41.30664062 45.27929688 C41.11221212 40.17112972 40.95378526 36.52654014 37.6875 32.375 C36.85412109 31.18970703 36.85412109 31.18970703 36.00390625 29.98046875 C35.42511719 29.18253906 34.84632812 28.38460937 34.25 27.5625 C26.6875 16.82759534 26.6875 16.82759534 26.6875 11.375 C26.0275 11.375 25.3675 11.375 24.6875 11.375 C24.0275 10.385 23.3675 9.395 22.6875 8.375 C22.0275 8.375 21.3675 8.375 20.6875 8.375 C19.6975 11.345 18.7075 14.315 17.6875 17.375 C15.83125 17.436875 15.83125 17.436875 13.9375 17.5 C13.24140625 17.52320312 12.5453125 17.54640625 11.828125 17.5703125 C9.6875 17.375 9.6875 17.375 7.78125 16.34375 C4.96706845 15.041666 2.99150975 15.38642741 -0.0625 15.75 C-1.04734375 15.86085938 -2.0321875 15.97171875 -3.046875 16.0859375 C-3.79453125 16.18132812 -4.5421875 16.27671875 -5.3125 16.375 C-5.6425 17.365 -5.9725 18.355 -6.3125 19.375 C-4.3325 19.705 -2.3525 20.035 -0.3125 20.375 C-0.3125 21.035 -0.3125 21.695 -0.3125 22.375 C0.739375 22.39626953 0.739375 22.39626953 1.8125 22.41796875 C8.67612635 22.76301518 13.35504822 23.96889842 18.6875 28.375 C19.76644531 29.20644531 19.76644531 29.20644531 20.8671875 30.0546875 C24.14587534 34.23395913 23.48953698 39.4208503 23.25 44.50390625 C22.57223441 49.16825136 21.64115364 51.27106733 17.93359375 54.11328125 C7.17113922 60.1589731 -2.05492 60.68637829 -13.875 57.5625 C-20.02652797 55.80395805 -20.02652797 55.80395805 -22.3125 52.375 C-22.54296875 50.21875 -22.54296875 50.21875 -22.5 47.875 C-22.49033203 46.71484375 -22.49033203 46.71484375 -22.48046875 45.53125 C-22.3125 43.375 -22.3125 43.375 -21.3125 40.375 C-16.82422124 39.9789754 -14.23496859 41.28858054 -10.3125 43.375 C-7.40767941 44.27752656 -4.7853587 44.51027194 -1.75 44.5 C-0.98558594 44.50257813 -0.22117187 44.50515625 0.56640625 44.5078125 C2.87748495 44.45407384 2.87748495 44.45407384 5.6875 43.375 C6.0175 42.385 6.3475 41.395 6.6875 40.375 C6.16542969 40.20484375 5.64335938 40.0346875 5.10546875 39.859375 C2.62844392 39.04382217 0.15756307 38.21140464 -2.3125 37.375 C-3.24835937 37.06175781 -4.18421875 36.74851563 -5.1484375 36.42578125 C-11.65486821 34.1708128 -16.86041636 31.95614068 -21.6875 26.875 C-24.10698856 21.66379388 -24.53698506 17.00320543 -23.3125 11.375 C-17.70304945 2.71212933 -9.87868601 -0.14056628 0 0 Z " fill="#64AAE4" transform="translate(51.3125,109.625)"/>
<path d="M0 0 C10.24968749 0.10426946 18.66715753 2.32931478 26.1328125 9.578125 C32.32375152 16.48459968 32.26799129 24.22159697 32.1171875 33.08203125 C31.77544982 38.73566959 29.25601129 42.10145898 25.6875 46.3125 C25.3575 47.3025 25.0275 48.2925 24.6875 49.3125 C23.6975 49.6425 22.7075 49.9725 21.6875 50.3125 C21.1925 51.3025 21.1925 51.3025 20.6875 52.3125 C22.29625 51.8175 22.29625 51.8175 23.9375 51.3125 C27.6875 50.3125 27.6875 50.3125 31.6875 50.3125 C32.6775 54.7675 32.6775 54.7675 33.6875 59.3125 C27.49366103 62.50932011 21.73562458 64.89949494 14.6875 63.3125 C13.89214844 62.64347656 13.09679687 61.97445312 12.27734375 61.28515625 C9.03519893 58.81564926 7.5053058 58.97192152 3.5 59.25 C-6.92719488 59.52037822 -13.03281942 57.27130358 -20.6953125 50.15234375 C-22.3125 48.3125 -22.3125 48.3125 -22.3125 46.3125 C-22.9725 46.3125 -23.6325 46.3125 -24.3125 46.3125 C-27.98258009 42.79533991 -28.44155795 38.10780445 -29.3125 33.3125 C-29.6425 35.2925 -29.9725 37.2725 -30.3125 39.3125 C-30.6425 39.3125 -30.9725 39.3125 -31.3125 39.3125 C-31.3125 27.1025 -31.3125 14.8925 -31.3125 2.3125 C-30.9825 2.3125 -30.6525 2.3125 -30.3125 2.3125 C-30.3125 9.5725 -30.3125 16.8325 -30.3125 24.3125 C-29.6525 24.3125 -28.9925 24.3125 -28.3125 24.3125 C-28.27125 23.3225 -28.23 22.3325 -28.1875 21.3125 C-27.16152458 14.25891896 -21.42429787 8.85440626 -16.12109375 4.49609375 C-13.30439895 2.6527708 -10.58581847 2.03263006 -7.3125 1.3125 C-5.44604795 -0.55395205 -2.5009657 0.05193262 0 0 Z " fill="#2270CD" transform="translate(211.3125,109.6875)"/>
<path d="M0 0 C6.34066789 1.59046853 9.05599648 7.03975718 12.37109375 12.25537109 C14.12275762 14.76583764 16.27896378 16.79116856 18.50390625 18.87890625 C20.50390625 20.87890625 20.50390625 20.87890625 20.50390625 24.87890625 C21.16390625 24.87890625 21.82390625 24.87890625 22.50390625 24.87890625 C23.16390625 25.86890625 23.82390625 26.85890625 24.50390625 27.87890625 C24.54149048 26.70533569 24.54149048 26.70533569 24.57983398 25.50805664 C24.69540413 21.98565676 24.81830574 18.46355065 24.94140625 14.94140625 C24.98072266 13.70970703 25.02003906 12.47800781 25.06054688 11.20898438 C25.10244141 10.03916016 25.14433594 8.86933594 25.1875 7.6640625 C25.22415771 6.5800415 25.26081543 5.49602051 25.29858398 4.37915039 C25.50390625 1.87890625 25.50390625 1.87890625 26.50390625 0.87890625 C28.66871422 0.77997685 30.8368441 0.74919525 33.00390625 0.75390625 C34.18984375 0.75132813 35.37578125 0.74875 36.59765625 0.74609375 C39.50390625 0.87890625 39.50390625 0.87890625 40.50390625 1.87890625 C40.59749815 3.59756034 40.62135236 5.32006369 40.61743164 7.04125977 C40.61735611 8.14232559 40.61728058 9.24339142 40.61720276 10.37782288 C40.61204147 11.57571945 40.60688019 12.77361603 40.6015625 14.0078125 C40.60014755 15.22718002 40.5987326 16.44654755 40.59727478 17.7028656 C40.59165592 21.61573695 40.57910021 25.52855206 40.56640625 29.44140625 C40.56139368 32.08658772 40.55683035 34.73177008 40.55273438 37.37695312 C40.54168036 43.87762351 40.52492389 50.37826086 40.50390625 56.87890625 C38.40818962 56.96001623 36.31157406 57.01814612 34.21484375 57.06640625 C32.46373291 57.11861328 32.46373291 57.11861328 30.67724609 57.171875 C27.25786094 56.85619088 26.28827481 56.45505679 24.12890625 53.87890625 C23.24364679 52.55236244 22.36923975 51.21853333 21.50390625 49.87890625 C20.24995673 48.46788581 18.97876443 47.07201371 17.69140625 45.69140625 C14.61678923 42.35887434 14.61678923 42.35887434 13.9921875 39.703125 C13.83105469 39.10113281 13.66992188 38.49914062 13.50390625 37.87890625 C12.01890625 37.38390625 12.01890625 37.38390625 10.50390625 36.87890625 C8.85390625 34.23890625 7.20390625 31.59890625 5.50390625 28.87890625 C5.17390625 38.11890625 4.84390625 47.35890625 4.50390625 56.87890625 C-0.44609375 56.87890625 -5.39609375 56.87890625 -10.49609375 56.87890625 C-10.52073331 49.06437411 -10.5389248 41.24986437 -10.55102539 33.43530273 C-10.55606758 30.77449144 -10.56290111 28.11368293 -10.5715332 25.45288086 C-10.58360384 21.63785109 -10.58932304 17.82285781 -10.59375 14.0078125 C-10.59891129 12.80991592 -10.60407257 11.61201935 -10.60939026 10.37782288 C-10.60946579 9.27675705 -10.60954132 8.17569122 -10.60961914 7.04125977 C-10.61183975 6.06641129 -10.61406036 5.09156281 -10.61634827 4.08717346 C-10.33060614 -1.15998887 -4.11517921 0.00451721 0 0 Z " fill="#EAEBEA" transform="translate(139.49609375,110.12109375)"/>
<path d="M0 0 C0.96292969 0.60585937 1.92585938 1.21171875 2.91796875 1.8359375 C11.62233125 7.7139158 11.62233125 7.7139158 13 14 C13.95999196 21.64893697 14.57433502 29.80741282 10.0625 36.375 C9.04321905 37.58464312 8.0226562 38.79320903 7 40 C6.67 40.99 6.34 41.98 6 43 C5.01 43.33 4.02 43.66 3 44 C2.505 44.99 2.505 44.99 2 46 C3.60875 45.505 3.60875 45.505 5.25 45 C9 44 9 44 13 44 C13.66 46.97 14.32 49.94 15 53 C5.11041009 57.79495268 5.11041009 57.79495268 0 57 C-4.67540589 55.18708751 -7.62469528 52.67312572 -11 49 C-10.4225 49.165 -9.845 49.33 -9.25 49.5 C-6.73335631 50.14462031 -6.73335631 50.14462031 -3 50 C-0.88189373 48.18530111 -0.88189373 48.18530111 -0.3125 45.875 C1.00840142 42.98159689 2.36102932 41.3786111 4.5 39.0625 C9.25076595 33.79920329 10.16423084 28.96474301 11 22 C7.7 22 4.4 22 1 22 C1 23.65 1 25.3 1 27 C0.34 26.67 -0.32 26.34 -1 26 C-1.35786234 23.51308326 -1.44370337 21.05202642 -1.55859375 18.54296875 C-2.0788049 15.54600011 -2.91627891 14.19414871 -5 12 C-10.02449982 9.01426618 -15.28457932 8.35471057 -21 9 C-24.75212276 11.01502889 -26.63644095 12.45466142 -29 16 C-30.13833129 25.3189351 -30.13833129 25.3189351 -27 33.8125 C-23.1146297 36.64558251 -20.75736107 36.83873352 -16 37 C-16 35.35 -16 33.7 -16 32 C-15.01 32 -14.02 32 -13 32 C-13 32.99 -13 33.98 -13 35 C-12.34 35.66 -11.68 36.32 -11 37 C-11 37.99 -11 38.98 -11 40 C-14.20389553 41.60194777 -17.51580157 41.3516761 -21 41 C-25.86936911 39.28139914 -29.50635134 36.56384754 -32 32 C-32.96447149 28.65683199 -33.48610882 25.45708609 -34 22 C-37.3 22 -40.6 22 -44 22 C-43.67 25.63 -43.34 29.26 -43 33 C-46.30236859 28.04644711 -46.64161695 23.79237526 -46 18 C-44.26488801 11.71964899 -41.67173317 6.55493984 -37 2 C-34.75 1.3125 -34.75 1.3125 -33 1 C-32.67 0.01 -32.34 -0.98 -32 -2 C-21.88057281 -5.84538233 -9.24381267 -5.87794838 0 0 Z " fill="#81BDE8" transform="translate(230,116)"/>
<path d="M0 0 C1.1859375 0.00257812 2.371875 0.00515625 3.59375 0.0078125 C4.7796875 0.00523438 5.965625 0.00265625 7.1875 0 C10.09375 0.1328125 10.09375 0.1328125 11.09375 1.1328125 C11.1873419 2.85146659 11.21119611 4.57396994 11.20727539 6.29516602 C11.20719986 7.39623184 11.20712433 8.49729767 11.20704651 9.63172913 C11.20188522 10.8296257 11.19672394 12.02752228 11.19140625 13.26171875 C11.1899913 14.48108627 11.18857635 15.7004538 11.18711853 16.95677185 C11.18149967 20.8696432 11.16894396 24.78245831 11.15625 28.6953125 C11.15123743 31.34049397 11.1466741 33.98567633 11.14257812 36.63085938 C11.13152411 43.13152976 11.11476764 49.63216711 11.09375 56.1328125 C8.99803337 56.21392248 6.90141781 56.27205237 4.8046875 56.3203125 C3.05357666 56.37251953 3.05357666 56.37251953 1.26708984 56.42578125 C-2.15215098 56.11011046 -3.12198833 55.70891099 -5.28125 53.1328125 C-6.16588861 51.80585459 -7.04028773 50.47203322 -7.90625 49.1328125 C-9.18121166 47.70109326 -10.47316437 46.28433282 -11.78125 44.8828125 C-14.99991703 41.39940662 -14.90625 39.84681301 -14.90625 35.1328125 C-16.55258943 33.1160467 -18.21892723 31.11541676 -19.90625 29.1328125 C-19.90625 28.4728125 -19.90625 27.8128125 -19.90625 27.1328125 C-16.27625 27.1328125 -12.64625 27.1328125 -8.90625 27.1328125 C-8.90625 26.1428125 -8.90625 25.1528125 -8.90625 24.1328125 C-8.24625 24.1328125 -7.58625 24.1328125 -6.90625 24.1328125 C-6.24625 25.1228125 -5.58625 26.1128125 -4.90625 27.1328125 C-4.88119385 26.35043213 -4.8561377 25.56805176 -4.83032227 24.76196289 C-4.71475212 21.23956301 -4.59185051 17.7174569 -4.46875 14.1953125 C-4.40977539 12.34776367 -4.40977539 12.34776367 -4.34960938 10.46289062 C-4.30771484 9.29306641 -4.26582031 8.12324219 -4.22265625 6.91796875 C-4.18599854 5.83394775 -4.14934082 4.74992676 -4.11157227 3.63305664 C-3.81654985 0.04051858 -3.65519797 0.16703862 0 0 Z " fill="#D6D6D6" transform="translate(168.90625,110.8671875)"/>
<path d="M0 0 C9.9 0 19.8 0 30 0 C30 0.33 30 0.66 30 1 C23.565 1.495 23.565 1.495 17 2 C16.67 19.82 16.34 37.64 16 56 C15.67 56 15.34 56 15 56 C14.67 41.15 14.34 26.3 14 11 C12.68 13.64 11.36 16.28 10 19 C8.68612831 20.35251497 7.35573748 21.68945377 6 23 C5.70480469 23.79019531 5.40960938 24.58039063 5.10546875 25.39453125 C3.90705479 28.21906168 2.63444282 29.40854713 0.4375 31.5 C-5.48211223 38.66002891 -4.05625355 49.20033725 -4 58 C-9.28 58 -14.56 58 -20 58 C-20.03738281 56.54207031 -20.07476562 55.08414063 -20.11328125 53.58203125 C-20.17895157 51.6588289 -20.24539855 49.73565295 -20.3125 47.8125 C-20.33505859 46.85279297 -20.35761719 45.89308594 -20.38085938 44.90429688 C-20.57590378 39.77994838 -20.77869395 36.20742014 -24 32 C-24.69822617 30.34630643 -25.37498605 28.68272986 -26 27 C-25.34 27 -24.68 27 -24 27 C-24.44472656 26.31292969 -24.88945313 25.62585938 -25.34765625 24.91796875 C-26.19650391 23.56638672 -26.19650391 23.56638672 -27.0625 22.1875 C-27.63097656 21.29417969 -28.19945313 20.40085938 -28.78515625 19.48046875 C-30 17 -30 17 -29 14 C-25.9375 12.8125 -25.9375 12.8125 -23 12 C-18.46321158 16.01829831 -15.54222705 20.4936444 -13 26 C-13 26.66 -13 27.32 -13 28 C-9.37 28 -5.74 28 -2 28 C-4 33 -4 33 -5.5 35.375 C-7.19723301 38.03373723 -7.19723301 38.03373723 -7.75 41.5625 C-9.08173624 45.22477465 -9.43860028 45.63315317 -12.625 47.4375 C-13.73875 47.953125 -14.8525 48.46875 -16 49 C-16.33 48.67 -16.66 48.34 -17 48 C-17.33 50.97 -17.66 53.94 -18 57 C-13.71 57 -9.42 57 -5 57 C-5.29583984 55.21335937 -5.29583984 55.21335937 -5.59765625 53.390625 C-7.49126903 36.06346057 0.67447473 24.55715982 10.09887695 10.91821289 C11.97947512 8.03150558 13.52144733 5.10880363 15 2 C12.89521396 2.11409682 10.79115423 2.24165361 8.6875 2.375 C6.92986328 2.47941406 6.92986328 2.47941406 5.13671875 2.5859375 C1.84300113 2.78613747 1.84300113 2.78613747 -1 5 C-0.67 3.35 -0.34 1.7 0 0 Z " fill="#4C9CDE" transform="translate(113,110)"/>
<path d="M0 0 C5.39019512 0.77002787 8.6557008 2.51037115 12.3125 6.5625 C14.96744629 11.97072391 15.08749732 16.78762313 13.15234375 22.50390625 C10.70739226 27.53470475 8.10146288 30.14670103 2.96484375 32.34375 C-7.44308063 35.81995536 -17.95299968 34.08714707 -28 30 C-30.09740836 26.85388747 -30.25328219 26.08811922 -30.1875 22.5 C-30.17783203 21.33984375 -30.17783203 21.33984375 -30.16796875 20.15625 C-30 18 -30 18 -29 15 C-24.55129785 14.60746746 -21.85756507 15.84694043 -18 18 C-18 18.66 -18 19.32 -18 20 C-15.54159395 20.02691685 -13.08348118 20.04679802 -10.625 20.0625 C-9.92632812 20.07087891 -9.22765625 20.07925781 -8.5078125 20.08789062 C-4.62704624 20.1835442 -4.62704624 20.1835442 -1 19 C-1 16.69 -1 14.38 -1 12 C2 14 2 14 3 17 C4.670625 16.9690625 4.670625 16.9690625 6.375 16.9375 C10 17 10 17 12 18 C11.8866489 13.27016778 11.73967945 9.97215013 8.8125 6.125 C5.98571736 3.98920867 3.23647727 2.43007135 0 1 C0 0.67 0 0.34 0 0 Z " fill="#378CD7" transform="translate(59,135)"/>
<path d="M0 0 C3.67014634 2.19668059 6.65715647 4.24139748 8.80859375 8.01953125 C9.1015625 11.25390625 9.1015625 11.25390625 8.99609375 14.76953125 C8.96902344 15.94 8.94195312 17.11046875 8.9140625 18.31640625 C8.87925781 19.2084375 8.84445313 20.10046875 8.80859375 21.01953125 C8.19886719 20.69597656 7.58914062 20.37242187 6.9609375 20.0390625 C4.30265689 18.77987695 2.72603334 18.66374593 -0.19140625 19.01953125 C-2.95582594 20.42712466 -2.95582594 20.42712466 -5.19140625 22.01953125 C-4.86140625 24.32953125 -4.53140625 26.63953125 -4.19140625 29.01953125 C-9.06148896 29.09528809 -13.10894784 28.81091242 -16.75390625 25.33203125 C-20.15046198 20.75901488 -19.95871112 15.78865033 -19.71875 10.28125 C-18.83632154 4.82326653 -16.71812141 2.93634965 -12.37890625 -0.35546875 C-7.98365921 -1.61125362 -4.17481056 -1.86787425 0 0 Z " fill="#15294D" transform="translate(219.19140625,124.98046875)"/>
<path d="M0 0 C1.99620166 0.67795528 3.99538701 1.34733531 6 2 C5 9.42857143 5 9.42857143 4 13 C-0.75 12.125 -0.75 12.125 -3 11 C-5.31082534 10.90264181 -7.62462958 10.87022627 -9.9375 10.875 C-11.80728516 10.87113281 -11.80728516 10.87113281 -13.71484375 10.8671875 C-17.00676297 10.84800569 -17.00676297 10.84800569 -20 12 C-19.67 13.65 -19.34 15.3 -19 17 C-14.71 18.32 -10.42 19.64 -6 21 C-6 21.33 -6 21.66 -6 22 C-12.75479274 22.7342166 -17.18524285 20.27591952 -23 17 C-23.125 11.25 -23.125 11.25 -22 9 C-22.99 9.33 -23.98 9.66 -25 10 C-25.639375 9.649375 -26.27875 9.29875 -26.9375 8.9375 C-27.618125 8.628125 -28.29875 8.31875 -29 8 C-31.11893071 8.89527305 -31.11893071 8.89527305 -33 10 C-32.74213573 16.52396607 -32.17832479 20.87818251 -28 26 C-30.6245228 25.00449135 -31.95028727 24.06036546 -33.75 21.875 C-35.35600188 18.18119568 -35.70260134 14.92993495 -35 11 C-33.25 7.75 -33.25 7.75 -31 5 C-30.4225 4.278125 -29.845 3.55625 -29.25 2.8125 C-21.34987027 -3.5514934 -9.06782467 -4.1767891 0 0 Z " fill="#8ECBF2" transform="translate(64,113)"/>
<path d="M0 0 C0.96292969 0.60585937 1.92585938 1.21171875 2.91796875 1.8359375 C11.62233125 7.7139158 11.62233125 7.7139158 13 14 C13.95999196 21.64893697 14.57433502 29.80741282 10.0625 36.375 C9.04321905 37.58464312 8.0226562 38.79320903 7 40 C6.67 40.99 6.34 41.98 6 43 C5.01 43.33 4.02 43.66 3 44 C2.505 44.99 2.505 44.99 2 46 C3.60875 45.505 3.60875 45.505 5.25 45 C9 44 9 44 13 44 C13.66 46.97 14.32 49.94 15 53 C5.11041009 57.79495268 5.11041009 57.79495268 0 57 C-4.67540589 55.18708751 -7.62469528 52.67312572 -11 49 C-10.4225 49.165 -9.845 49.33 -9.25 49.5 C-6.73335631 50.14462031 -6.73335631 50.14462031 -3 50 C-0.88189373 48.18530111 -0.88189373 48.18530111 -0.3125 45.875 C1.00840142 42.98159689 2.36102932 41.3786111 4.5 39.0625 C9.85411537 33.06277404 10.42369399 27.85952325 10.23828125 19.96484375 C9.72533233 13.58241368 8.02989111 9.6383919 3.375 5.1875 C-6.20591693 -2.47024017 -16.59592576 -1.50014361 -28.1640625 -0.21875 C-28.76992187 -0.1465625 -29.37578125 -0.074375 -30 0 C-30.33 0.99 -30.66 1.98 -31 3 C-31.928125 3.45375 -32.85625 3.9075 -33.8125 4.375 C-37.97864582 6.49891748 -39.96146392 9.00763114 -42.1015625 13.11328125 C-43.33016623 17.06083845 -43.21447216 20.70710427 -43.125 24.8125 C-43.11146484 25.99489258 -43.11146484 25.99489258 -43.09765625 27.20117188 C-43.07422504 29.13424666 -43.03835838 31.0671638 -43 33 C-46.30236859 28.04644711 -46.64161695 23.79237526 -46 18 C-44.26488801 11.71964899 -41.67173317 6.55493984 -37 2 C-34.75 1.3125 -34.75 1.3125 -33 1 C-32.67 0.01 -32.34 -0.98 -32 -2 C-21.88057281 -5.84538233 -9.24381267 -5.87794838 0 0 Z " fill="#8CBFE9" transform="translate(230,116)"/>
<path d="M0 0 C4.29 0 8.58 0 13 0 C13 16.5 13 33 13 50 C11 48 11 48 10.86474609 45.84521484 C10.91711426 44.97590332 10.96948242 44.1065918 11.0234375 43.2109375 C11.075 42.26992187 11.1265625 41.32890625 11.1796875 40.359375 C11.24414062 39.37453125 11.30859375 38.3896875 11.375 37.375 C11.43171875 36.38242188 11.4884375 35.38984375 11.546875 34.3671875 C11.68858377 31.9109021 11.84309434 29.45536147 12 27 C7.05 27.495 7.05 27.495 2 28 C1.67 30.31 1.34 32.62 1 35 C-0.37562854 33.71034824 -1.70766393 32.37310707 -3 31 C-3 30.34 -3 29.68 -3 29 C-2.34 29 -1.68 29 -1 29 C-1.00523682 28.15703369 -1.01047363 27.31406738 -1.01586914 26.44555664 C-1.03287826 23.32772064 -1.04543406 20.20990823 -1.05493164 17.09204102 C-1.05997057 15.74079614 -1.06680177 14.38955674 -1.07543945 13.03833008 C-1.08752419 11.09979566 -1.09269828 9.161222 -1.09765625 7.22265625 C-1.10289307 6.05484619 -1.10812988 4.88703613 -1.11352539 3.68383789 C-1 1 -1 1 0 0 Z " fill="#EEEFEE" transform="translate(166,111)"/>
<path d="M0 0 C0.33 0 0.66 0 1 0 C1.33 8.58 1.66 17.16 2 26 C5.63 26 9.26 26 13 26 C13.02690805 29.93754535 13.0467945 33.87490782 13.0625 37.8125 C13.07087891 38.93205078 13.07925781 40.05160156 13.08789062 41.20507812 C13.09111328 42.27822266 13.09433594 43.35136719 13.09765625 44.45703125 C13.10289307 45.44678955 13.10812988 46.43654785 13.11352539 47.45629883 C13 50 13 50 12 53 C12.66 53.33 13.32 53.66 14 54 C14 44.43 14 34.86 14 25 C14.66 25.33 15.32 25.66 16 26 C15.67 35.57 15.34 45.14 15 55 C10.05 55 5.1 55 0 55 C0 36.85 0 18.7 0 0 Z " fill="#D9DADB" transform="translate(129,112)"/>
<path d="M0 0 C4.56216465 -0.14532035 9.12373362 -0.23408477 13.6875 -0.3125 C15.62786133 -0.3753418 15.62786133 -0.3753418 17.60742188 -0.43945312 C19.47817383 -0.46362305 19.47817383 -0.46362305 21.38671875 -0.48828125 C23.10701294 -0.52755737 23.10701294 -0.52755737 24.86206055 -0.56762695 C28.93289973 0.16875374 30.36933542 1.90075856 33 5 C33.495 5.495 33.495 5.495 34 6 C34.14193337 9.00331018 34.04236378 11.99217134 34 15 C30.7 15 27.4 15 24 15 C23.731875 14.21625 23.46375 13.4325 23.1875 12.625 C22.15185568 9.71885077 22.15185568 9.71885077 19 8 C17.11108513 7.32993716 17.11108513 7.32993716 15.05859375 6.81640625 C14.31029297 6.61080078 13.56199219 6.40519531 12.79101562 6.19335938 C11.2193309 5.77206961 9.6463965 5.3554151 8.07226562 4.94335938 C7.32525391 4.73646484 6.57824219 4.52957031 5.80859375 4.31640625 C5.12595459 4.13537354 4.44331543 3.95434082 3.73999023 3.76782227 C2 3 2 3 0 0 Z " fill="#1657BC" transform="translate(37,138)"/>
<path d="M0 0 C0.66 0 1.32 0 2 0 C3.33333333 3.33333333 4.66666667 6.66666667 6 10 C6.66 7.69 7.32 5.38 8 3 C11.3 3 14.6 3 18 3 C17.67 5.97 17.34 8.94 17 12 C14 13 14 13 10.5625 12.9375 C7.15852721 12.74096327 7.15852721 12.74096327 5 14 C2.02814323 15.48592838 -0.7358118 15.1255457 -4 15 C-3.67 16.32 -3.34 17.64 -3 19 C-4.32 18.01 -5.64 17.02 -7 16 C-6.67 15.34 -6.34 14.68 -6 14 C-6 9.72946073 -8.30125972 8.17101982 -11 5 C-11 4.34 -11 3.68 -11 3 C-7.37 3 -3.74 3 0 3 C0 2.01 0 1.02 0 0 Z " fill="#B1B2B1" transform="translate(160,135)"/>
<path d="M0 0 C5.28 0 10.56 0 16 0 C16.99 2.97 17.98 5.94 19 9 C16.69 10.65 14.38 12.3 12 14 C13.13001803 17.10754957 14.48246975 19.86741537 16.1875 22.6875 C17.0846875 24.3271875 17.0846875 24.3271875 18 26 C17.67 26.66 17.34 27.32 17 28 C11.46842935 23.69766727 8.30390648 19.73449586 6 13 C6 12.01 6 11.02 6 10 C5.34 10 4.68 10 4 10 C0.41209106 6.30656433 0 5.40242057 0 0 Z " fill="#7CBCE8" transform="translate(72,111)"/>
<path d="M0 0 C6.6 0 13.2 0 20 0 C18 5 18 5 16.5 7.375 C14.80276699 10.03373723 14.80276699 10.03373723 14.25 13.5625 C12.91826376 17.22477465 12.56139972 17.63315317 9.375 19.4375 C8.26125 19.953125 7.1475 20.46875 6 21 C4.25520901 19.25520901 4.78967964 16.68598707 4.6875 14.3125 C4.300376 8.88631188 3.39583404 6.16263527 0 2 C0 1.34 0 0.68 0 0 Z " fill="#175BBE" transform="translate(91,138)"/>
<path d="M0 0 C9.9 0 19.8 0 30 0 C30 0.33 30 0.66 30 1 C23.565 1.495 23.565 1.495 17 2 C16.67 19.82 16.34 37.64 16 56 C15.67 56 15.34 56 15 56 C14.67 41.15 14.34 26.3 14 11 C12.68 13.64 11.36 16.28 10 19 C8.68612831 20.35251497 7.35573748 21.68945377 6 23 C5.70480469 23.79019531 5.40960938 24.58039063 5.10546875 25.39453125 C3.90705479 28.21906168 2.63444282 29.40854713 0.4375 31.5 C-5.46888972 38.64403569 -4.09506179 49.20257303 -4 58 C-4.33 58 -4.66 58 -5 58 C-8.07762161 38.28712954 -0.73961517 26.48870975 10.09887695 10.90234375 C11.98520173 8.02259173 13.52365331 5.106762 15 2 C12.89521396 2.11409682 10.79115423 2.24165361 8.6875 2.375 C6.92986328 2.47941406 6.92986328 2.47941406 5.13671875 2.5859375 C1.84300113 2.78613747 1.84300113 2.78613747 -1 5 C-0.67 3.35 -0.34 1.7 0 0 Z " fill="#437092" transform="translate(113,110)"/>
<path d="M0 0 C10.58216444 0.10765172 18.68586025 2.49790545 26.359375 9.921875 C26.79765625 10.38078125 27.2359375 10.8396875 27.6875 11.3125 C27.3575 11.9725 27.0275 12.6325 26.6875 13.3125 C25.96304688 12.75820312 25.23859375 12.20390625 24.4921875 11.6328125 C23.52539062 10.90835938 22.55859375 10.18390625 21.5625 9.4375 C20.61117187 8.71820313 19.65984375 7.99890625 18.6796875 7.2578125 C10.63703241 2.02903674 1.30432944 2.44391914 -7.9609375 3.66015625 C-11.5795779 4.46056184 -13.95445814 5.43044884 -16.3125 8.3125 C-16.9725 8.3125 -17.6325 8.3125 -18.3125 8.3125 C-18.68375 9.116875 -18.68375 9.116875 -19.0625 9.9375 C-20.3125 12.3125 -20.3125 12.3125 -22.3125 15.1875 C-25.87745798 20.75774684 -26.60172684 25.66895793 -26.4375 32.1875 C-26.42396484 33.22003906 -26.42396484 33.22003906 -26.41015625 34.2734375 C-26.38682513 35.95327838 -26.35096326 37.63293746 -26.3125 39.3125 C-28.4510485 37.1739515 -28.73905063 36.17974686 -29.3125 33.3125 C-29.6425 35.2925 -29.9725 37.2725 -30.3125 39.3125 C-30.6425 39.3125 -30.9725 39.3125 -31.3125 39.3125 C-31.3125 27.1025 -31.3125 14.8925 -31.3125 2.3125 C-30.9825 2.3125 -30.6525 2.3125 -30.3125 2.3125 C-30.3125 9.5725 -30.3125 16.8325 -30.3125 24.3125 C-29.6525 24.3125 -28.9925 24.3125 -28.3125 24.3125 C-28.27125 23.3225 -28.23 22.3325 -28.1875 21.3125 C-27.16152458 14.25891896 -21.42429787 8.85440626 -16.12109375 4.49609375 C-13.30439895 2.6527708 -10.58581847 2.03263006 -7.3125 1.3125 C-5.44604795 -0.55395205 -2.5009657 0.05193262 0 0 Z " fill="#3981B4" transform="translate(211.3125,109.6875)"/>
<path d="M0 0 C3.82612703 1.50312133 5.70091967 3.62801551 8 7 C9.70862775 11.1007066 10 13.43681152 10 18 C6.7 18 3.4 18 0 18 C-0.45375 16.618125 -0.9075 15.23625 -1.375 13.8125 C-2.47975443 10.49300091 -3.64632091 7.22800399 -5 4 C-3.35 2.68 -1.7 1.36 0 0 Z " fill="#5CA6E8" transform="translate(231,120)"/>
<path d="M0 0 C0.99 0.66 1.98 1.32 3 2 C2.76774367 5.48384489 2.62008825 7.3999146 0.0625 9.875 C-6.17110578 12.164896 -12.58555227 11.15131113 -19 10 C-20.27003323 11.05310277 -20.27003323 11.05310277 -20.1875 13.4375 C-20.26839983 16.16734675 -20.26839983 16.16734675 -18 18 C-21.9492568 17.44894091 -25.34920174 16.61064629 -29 15 C-29.02712066 13.56260487 -29.04645067 12.12506137 -29.0625 10.6875 C-29.07410156 9.88699219 -29.08570312 9.08648437 -29.09765625 8.26171875 C-29 6 -29 6 -28 3 C-23.55129785 2.60746746 -20.85756507 3.84694043 -17 6 C-17 6.66 -17 7.32 -17 8 C-14.54159395 8.02691685 -12.08348118 8.04679802 -9.625 8.0625 C-8.57699219 8.07506836 -8.57699219 8.07506836 -7.5078125 8.08789062 C-3.62704624 8.1835442 -3.62704624 8.1835442 0 7 C0 4.69 0 2.38 0 0 Z " fill="#92C1E7" transform="translate(58,147)"/>
<path d="M0 0 C1.79244141 0.01740234 1.79244141 0.01740234 3.62109375 0.03515625 C5.41740234 0.04869141 5.41740234 0.04869141 7.25 0.0625 C8.17683594 0.07410156 9.10367188 0.08570312 10.05859375 0.09765625 C8.45514989 6.14063531 5.27554262 11.11812361 2.05859375 16.41015625 C1.51203125 17.32861328 0.96546875 18.24707031 0.40234375 19.19335938 C-3.68406498 25.96898562 -3.68406498 25.96898562 -5.94140625 27.09765625 C-4.894599 23.29108441 -3.4959079 20.28897316 -1.31640625 17.03515625 C0.71879468 13.92565571 1.65401411 11.90834653 1.05859375 8.09765625 C-0.59140625 7.76765625 -2.24140625 7.43765625 -3.94140625 7.09765625 C-5.59140625 9.07765625 -7.24140625 11.05765625 -8.94140625 13.09765625 C-8.94140625 10.25798394 -8.53873444 7.86029914 -7.94140625 5.09765625 C-7.28140625 5.09765625 -6.62140625 5.09765625 -5.94140625 5.09765625 C-5.63203125 4.45828125 -5.32265625 3.81890625 -5.00390625 3.16015625 C-3.43469154 0.11403358 -3.43469154 0.11403358 0 0 Z " fill="#93CDF0" transform="translate(117.94140625,111.90234375)"/>
<path d="M0 0 C0.9075 0.391875 1.815 0.78375 2.75 1.1875 C2.03269264 4.41915844 0.93684926 7.37457922 -0.3125 10.4375 C-0.67472656 11.32953125 -1.03695312 12.2215625 -1.41015625 13.140625 C-1.68730469 13.81609375 -1.96445313 14.4915625 -2.25 15.1875 C-5.55 15.1875 -8.85 15.1875 -12.25 15.1875 C-11.75989011 6.85563187 -11.75989011 6.85563187 -9.4375 3.8125 C-8.715625 3.27625 -7.99375 2.74 -7.25 2.1875 C-6.321875 1.259375 -6.321875 1.259375 -5.375 0.3125 C-3.25 -0.8125 -3.25 -0.8125 0 0 Z " fill="#59A4E7" transform="translate(198.25,122.8125)"/>
<path d="M0 0 C3.63 0 7.26 0 11 0 C11 4.62 11 9.24 11 14 C10.01 13.67 9.02 13.34 8 13 C8 12.34 8 11.68 8 11 C5.69 12.32 3.38 13.64 1 15 C-0.49559965 10.05392242 -0.06102876 5.12641556 0 0 Z " fill="#BBBCBB" transform="translate(131,138)"/>
<path d="M0 0 C0.495 0.99 0.495 0.99 1 2 C0.32195312 1.7834375 -0.35609375 1.566875 -1.0546875 1.34375 C-11.03451466 -1.64190466 -19.7555964 -1.22060979 -30 0 C-30.33 0.99 -30.66 1.98 -31 3 C-31.928125 3.45375 -32.85625 3.9075 -33.8125 4.375 C-37.97864582 6.49891748 -39.96146392 9.00763114 -42.1015625 13.11328125 C-43.33016623 17.06083845 -43.21447216 20.70710427 -43.125 24.8125 C-43.11146484 25.99489258 -43.11146484 25.99489258 -43.09765625 27.20117188 C-43.07422504 29.13424666 -43.03835838 31.0671638 -43 33 C-46.30236859 28.04644711 -46.64161695 23.79237526 -46 18 C-44.26488801 11.71964899 -41.67173317 6.55493984 -37 2 C-34.75 1.3125 -34.75 1.3125 -33 1 C-32.67 0.01 -32.34 -0.98 -32 -2 C-22.20661282 -5.72148713 -8.86457814 -6.16470662 0 0 Z " fill="#B4D4EF" transform="translate(230,116)"/>
<path d="M0 0 C0.66 0.33 1.32 0.66 2 1 C-0.10714286 6.99725275 -0.10714286 6.99725275 -3 9 C-5.1875 8.6875 -5.1875 8.6875 -7 8 C-4.64722731 10.72426311 -2.37503669 11.8141763 1 13 C-0.6875 13.75 -0.6875 13.75 -3 14 C-3.73992187 13.34773437 -4.47984375 12.69546875 -5.2421875 12.0234375 C-8.64387531 9.52758157 -10.28585163 9.63049774 -14.4375 9.875 C-19.15528527 10.13121974 -22.62251601 9.8733883 -27 8 C-29.375 5.375 -29.375 5.375 -31 3 C-30.39414063 3.144375 -29.78828125 3.28875 -29.1640625 3.4375 C-18.69611141 5.75655378 -10.74726599 5.90317016 -1 1 C-0.67 0.67 -0.34 0.34 0 0 Z " fill="#3890D5" transform="translate(229,159)"/>
<path d="M0 0 C3.3 0 6.6 0 10 0 C10.4010138 6.54989207 8.86887178 10.26225644 6 16 C3.5625 15.1875 3.5625 15.1875 1 14 C-0.04976964 10.85069107 -0.10131595 8.61185544 -0.0625 5.3125 C-0.05347656 4.31863281 -0.04445312 3.32476562 -0.03515625 2.30078125 C-0.02355469 1.54152344 -0.01195312 0.78226563 0 0 Z " fill="#1553BC" transform="translate(231,138)"/>
<path d="M0 0 C0 0.33 0 0.66 0 1 C-1.11375 0.95875 -2.2275 0.9175 -3.375 0.875 C-7.04366025 0.58878141 -7.04366025 0.58878141 -9 3 C-11.26274788 2.64644564 -12.95088852 2.02455574 -15 1 C-15 0.34 -15 -0.32 -15 -1 C-22.22296615 0.43758064 -27.8364627 1.55735258 -33 7 C-34.85035348 10.70070696 -34.4754747 14.96155254 -34 19 C-32.91546245 21.41534564 -31.72477676 22.9518276 -30 25 C-32.6245228 24.00449135 -33.95028727 23.06036546 -35.75 20.875 C-37.35600188 17.18119568 -37.70260134 13.92993495 -37 10 C-35.25 6.75 -35.25 6.75 -33 4 C-32.4225 3.278125 -31.845 2.55625 -31.25 1.8125 C-22.75394734 -5.03154242 -9.32562319 -5.32892754 0 0 Z " fill="#B9DCF4" transform="translate(66,114)"/>
<path d="M0 0 C0.66 1.98 1.32 3.96 2 6 C-3.01861814 9.01117088 -6.29277011 9.55231257 -12 9 C-14.5 7.5 -14.5 7.5 -16 6 C-11.78857098 -0.97064114 -7.76957617 -0.73477603 0 0 Z " fill="#6BB9E9" transform="translate(241,162)"/>
<path d="M0 0 C5.39019512 0.77002787 8.6557008 2.51037115 12.3125 6.5625 C14.60058788 11.22341976 14.87905059 14.9015066 14 20 C12.28859862 24.79920642 10.59638872 28.21809532 5.9375 30.5 C4.4834375 30.7475 4.4834375 30.7475 3 31 C2.40832031 31.17402344 1.81664062 31.34804687 1.20703125 31.52734375 C-1.64811396 32.13879963 -4.332995 32.09420658 -7.25 32.0625 C-8.32765625 32.05347656 -9.4053125 32.04445312 -10.515625 32.03515625 C-11.33546875 32.02355469 -12.1553125 32.01195312 -13 32 C-13 31.67 -13 31.34 -13 31 C-11.98679688 30.90203125 -10.97359375 30.8040625 -9.9296875 30.703125 C-8.57802945 30.55294077 -7.22647183 30.40185077 -5.875 30.25 C-5.20984375 30.188125 -4.5446875 30.12625 -3.859375 30.0625 C2.00305948 29.37280183 5.74193328 27.30112307 9.84375 23.12109375 C12.21278556 18.77519406 11.69341854 13.77542959 11 9 C8.10603446 4.82928496 4.59650861 3.03101543 0 1 C0 0.67 0 0.34 0 0 Z " fill="#9EC7EC" transform="translate(59,135)"/>
<path d="M0 0 C0.33 0 0.66 0 1 0 C1 5.61 1 11.22 1 17 C-2.3 17 -5.6 17 -9 17 C-9 14.69 -9 12.38 -9 10 C-8.236875 9.71125 -7.47375 9.4225 -6.6875 9.125 C-3.84970692 8.03730987 -3.84970692 8.03730987 -1 6 C-0.26656572 2.93443402 -0.26656572 2.93443402 0 0 Z " fill="#3E94DA" transform="translate(105,148)"/>
<path d="M0 0 C3.3 0 6.6 0 10 0 C9.67 2.97 9.34 5.94 9 9 C6.05549278 9.98150241 4.06481021 10.1613058 1 10 C0 9 0 9 -0.09765625 6.93359375 C-0.06510417 4.62239583 -0.03255208 2.31119792 0 0 Z " fill="#A0A1A0" transform="translate(168,138)"/>
<path d="M0 0 C0.33 0.99 0.66 1.98 1 3 C-0.6452017 5.82034576 -2.2645515 8.29283798 -4.625 10.5625 C-6.17727599 11.99238175 -6.17727599 11.99238175 -6.86328125 14.37109375 C-8.0849712 17.19651415 -9.35904048 18.40234334 -11.5625 20.5 C-17.46888972 27.64403569 -16.09506179 38.20257303 -16 47 C-16.33 47 -16.66 47 -17 47 C-18.31078189 32.41603902 -17.57151569 22.14299702 -8.26074219 10.46484375 C-6.60512925 8.54120362 -4.81361858 6.77384624 -3 5 C-1.95650161 3.36021682 -0.94392019 1.69905634 0 0 Z " fill="#2B6397" transform="translate(125,121)"/>
<path d="M0 0 C1.299375 0.144375 2.59875 0.28875 3.9375 0.4375 C9.73864014 1.0309884 15.54902414 1.33700561 21.37280273 1.60717773 C26.89195266 1.89195266 26.89195266 1.89195266 28 3 C30.00720923 2.71325582 32.0085944 2.38133299 34 2 C33 4 33 4 30.125 5.125 C20.14075062 7.63625136 10.47593878 5.65691158 1 2 C0.67 1.34 0.34 0.68 0 0 Z " fill="#4291CE" transform="translate(30,163)"/>
<path d="M0 0 C0.66 0.33 1.32 0.66 2 1 C1.01 2.485 1.01 2.485 0 4 C1.0725 3.67 2.145 3.34 3.25 3 C7 2 7 2 11 2 C11.66 4.97 12.32 7.94 13 11 C3.11041009 15.79495268 3.11041009 15.79495268 -2 15 C-6.67540589 13.18708751 -9.62469528 10.67312572 -13 7 C-10.04451536 7.45468994 -8.70334126 8.22249406 -6.25 10.0625 C-1.96066542 12.61960331 0.06121414 12.47036056 5 12 C7.88214887 11.11785113 7.88214887 11.11785113 10 10 C9.67 8.02 9.34 6.04 9 4 C8.01 4.495 8.01 4.495 7 5 C4.3276379 5.13415472 1.67749512 5.04318541 -1 5 C-1 1 -1 1 0 0 Z " fill="#B8DBF4" transform="translate(232,158)"/>
<path d="M0 0 C3.16115776 1.36983503 3.9927092 1.9890638 6 5 C6.37890625 7.33984375 6.37890625 7.33984375 6.5625 9.9375 C6.74807896 12.44849701 6.93068699 14.74261771 7.5859375 17.17578125 C8.15401156 19.67852262 7.2964845 20.86461376 6 23 C4.68 23 3.36 23 2 23 C2 22.34 2 21.68 2 21 C-0.31 20.67 -2.62 20.34 -5 20 C-4.67 18.68 -4.34 17.36 -4 16 C0.1747899 15.65210084 1.79678245 16.39225238 5 19 C4.89254546 8.67017961 4.89254546 8.67017961 0 0 Z " fill="#55A0DC" transform="translate(223,127)"/>
<path d="M0 0 C0.33 0 0.66 0 1 0 C0.67 2.31 0.34 4.62 0 7 C-1.2375 7.04125 -2.475 7.0825 -3.75 7.125 C-4.79414062 7.15980469 -4.79414062 7.15980469 -5.859375 7.1953125 C-8 7 -8 7 -9.90625 5.96875 C-12.72043155 4.666666 -14.69599025 5.01142741 -17.75 5.375 C-18.73484375 5.48585938 -19.7196875 5.59671875 -20.734375 5.7109375 C-21.48203125 5.80632812 -22.2296875 5.90171875 -23 6 C-23.33 6.99 -23.66 7.98 -24 9 C-21.03 9.495 -21.03 9.495 -18 10 C-18 10.33 -18 10.66 -18 11 C-20.875 11.125 -20.875 11.125 -24 11 C-24.66 10.34 -25.32 9.68 -26 9 C-25.625 6.375 -25.625 6.375 -25 4 C-18.57325709 1.85775236 -9.89907313 1.76316151 -3.625 4.5 C-2.75875 4.995 -1.8925 5.49 -1 6 C-0.67 4.02 -0.34 2.04 0 0 Z " fill="#1D5285" transform="translate(69,120)"/>
<path d="M0 0 C8.32189703 1.66437941 14.15181871 4.87661018 20 11 C19.67 11.66 19.34 12.32 19 13 C18.27554688 12.44570312 17.55109375 11.89140625 16.8046875 11.3203125 C15.83789062 10.59585938 14.87109375 9.87140625 13.875 9.125 C12.92367187 8.40570313 11.97234375 7.68640625 10.9921875 6.9453125 C5.51728945 3.38591403 0.97134343 2.74015775 -5.5 2.8125 C-6.7684375 2.81894531 -8.036875 2.82539062 -9.34375 2.83203125 C-12.6503637 2.98393765 -15.75387592 3.37381866 -19 4 C-13.1770571 -1.48553873 -7.61548107 -0.77840007 0 0 Z " fill="#368AC9" transform="translate(219,110)"/>
<path d="M0 0 C1.79244141 0.01740234 1.79244141 0.01740234 3.62109375 0.03515625 C5.41740234 0.04869141 5.41740234 0.04869141 7.25 0.0625 C8.17683594 0.07410156 9.10367188 0.08570312 10.05859375 0.09765625 C8.45514989 6.14063531 5.27554262 11.11812361 2.05859375 16.41015625 C1.51203125 17.32861328 0.96546875 18.24707031 0.40234375 19.19335938 C-3.68406498 25.96898562 -3.68406498 25.96898562 -5.94140625 27.09765625 C-4.57519348 22.40439685 -2.61721569 18.65708008 -0.00390625 14.53515625 C0.68574219 13.44074219 1.37539062 12.34632812 2.0859375 11.21875 C2.73691406 10.18878906 3.38789062 9.15882812 4.05859375 8.09765625 C5.06385674 6.4341587 6.06592531 4.76869998 7.05859375 3.09765625 C5.43395533 3.04370147 3.80880834 3.0048843 2.18359375 2.97265625 C1.27867188 2.94945313 0.37375 2.92625 -0.55859375 2.90234375 C-3.12947619 2.85440789 -3.12947619 2.85440789 -4.94140625 5.09765625 C-3.81895287 0.12679126 -3.81895287 0.12679126 0 0 Z " fill="#C8E3F3" transform="translate(117.94140625,111.90234375)"/>
<path d="M0 0 C0.33 0 0.66 0 1 0 C1.22181406 2.43695715 1.42791119 4.873526 1.625 7.3125 C1.68945312 8.00279297 1.75390625 8.69308594 1.8203125 9.40429688 C2.11802847 13.2559972 2.20763723 14.68854416 0 18 C-0.66 18 -1.32 18 -2 18 C-2.66 20.31 -3.32 22.62 -4 25 C-2.68 25 -1.36 25 0 25 C0 25.66 0 26.32 0 27 C-3.87684087 28.19287411 -6.91621923 29 -11 29 C-10.505 27.515 -10.505 27.515 -10 26 C-9.01 26 -8.02 26 -7 26 C-6.8865625 25.40960938 -6.773125 24.81921875 -6.65625 24.2109375 C-5.94992556 21.83129684 -5.01346121 20.56962167 -3.5 18.625 C0.22249164 12.98226052 -0.10141177 6.56410747 0 0 Z " fill="#2066A7" transform="translate(243,133)"/>
<path d="M0 0 C2.97973615 -0.08184423 5.95716832 -0.14089764 8.9375 -0.1875 C9.76830078 -0.21263672 10.59910156 -0.23777344 11.45507812 -0.26367188 C17.50202899 -0.33425885 22.39516349 0.74535602 28 3 C28.33 2.01 28.66 1.02 29 0 C34.94 0 40.88 0 47 0 C47 0.99 47 1.98 47 3 C46.505 2.505 46.505 2.505 46 2 C43.30764224 1.76321284 40.63501844 1.57801975 37.9375 1.4375 C37.17888672 1.39431641 36.42027344 1.35113281 35.63867188 1.30664062 C33.75934562 1.20026367 31.87969756 1.09960066 30 1 C30.29197266 2.42699219 30.29197266 2.42699219 30.58984375 3.8828125 C31 7 31 7 29.5625 8.875 C29.046875 9.24625 28.53125 9.6175 28 10 C27.67 8.35 27.34 6.7 27 5 C26.36191406 4.86722656 25.72382812 4.73445313 25.06640625 4.59765625 C23.82697266 4.33275391 23.82697266 4.33275391 22.5625 4.0625 C21.73878906 3.88847656 20.91507813 3.71445313 20.06640625 3.53515625 C18 3 18 3 17 2 C14.14122091 1.76298761 11.30116703 1.57780818 8.4375 1.4375 C7.63119141 1.39431641 6.82488281 1.35113281 5.99414062 1.30664062 C3.99631195 1.20024738 1.9981793 1.09959112 0 1 C0 0.67 0 0.34 0 0 Z " fill="#1C5E96" transform="translate(42,110)"/>
<path d="M0 0 C3.96 0 7.92 0 12 0 C12.33 1.32 12.66 2.64 13 4 C11.35 5.32 9.7 6.64 8 8 C3.79373966 6.49776416 2.26099979 3.71449966 0 0 Z " fill="#9A9A99" transform="translate(149,139)"/>
<path d="M0 0 C2.97 0 5.94 0 9 0 C9 1.98 9 3.96 9 6 C5.86501708 7.85776765 3.62528568 8.20140476 0 8 C0 5.36 0 2.72 0 0 Z " fill="#9A9B9A" transform="translate(132,139)"/>
<path d="M0 0 C1.39456452 0.00667256 2.78911118 0.01863093 4.18359375 0.03515625 C4.89451172 0.03966797 5.60542969 0.04417969 6.33789062 0.04882812 C8.09899388 0.06064761 9.86005411 0.07858362 11.62109375 0.09765625 C11.29109375 0.75765625 10.96109375 1.41765625 10.62109375 2.09765625 C6.33109375 2.09765625 2.04109375 2.09765625 -2.37890625 2.09765625 C-2.70890625 11.33765625 -3.03890625 20.57765625 -3.37890625 30.09765625 C-4.36890625 29.10765625 -5.35890625 28.11765625 -6.37890625 27.09765625 C-6.37890625 26.43765625 -6.37890625 25.77765625 -6.37890625 25.09765625 C-7.03890625 25.09765625 -7.69890625 25.09765625 -8.37890625 25.09765625 C-8.04890625 24.43765625 -7.71890625 23.77765625 -7.37890625 23.09765625 C-6.71890625 23.09765625 -6.05890625 23.09765625 -5.37890625 23.09765625 C-5.3538501 22.43644775 -5.32879395 21.77523926 -5.30297852 21.09399414 C-5.18737523 18.1158332 -5.06448871 15.13801705 -4.94140625 12.16015625 C-4.90208984 11.11923828 -4.86277344 10.07832031 -4.82226562 9.00585938 C-4.75942383 7.52182617 -4.75942383 7.52182617 -4.6953125 6.0078125 C-4.65865479 5.09136963 -4.62199707 4.17492676 -4.58422852 3.23071289 C-4.24252061 -0.31923004 -3.71122408 0.10726081 0 0 Z " fill="#505253" transform="translate(168.37890625,109.90234375)"/>
<path d="M0 0 C-0.88751953 0.32871094 -0.88751953 0.32871094 -1.79296875 0.6640625 C-8.0855367 3.18930184 -11.89002062 5.78004124 -15 12 C-15.51194637 18.14335649 -15.02212087 21.05853722 -11 26 C-9.37648891 27.79394446 -9.37648891 27.79394446 -8 29 C-11.17033042 28.66032174 -11.99882607 28.00130809 -14.1875 25.5625 C-17.36743202 21.06673404 -17.57314863 17.58991456 -17.546875 12.125 C-16.75206681 7.58323891 -14.59692758 5.52155117 -11.23828125 2.5234375 C-7.40064144 -0.08856865 -4.53799587 -1.68073921 0 0 Z " fill="#2A83C9" transform="translate(45,112)"/>
<path d="M0 0 C1.65 1.65 3.3 3.3 5 5 C4.01 5.495 4.01 5.495 3 6 C2.34 5.67 1.68 5.34 1 5 C1 14.57 1 24.14 1 34 C-1.97 34 -4.94 34 -8 34 C-8 33.67 -8 33.34 -8 33 C-5.69 33 -3.38 33 -1 33 C-0.67 22.11 -0.34 11.22 0 0 Z " fill="#F5F5F5" transform="translate(142,132)"/>
<path d="M0 0 C3.71816333 2.47877556 4.74109104 5.00164128 6.71875 8.90625 C7.97326077 11.28563531 7.97326077 11.28563531 11 13 C11 13.66 11 14.32 11 15 C8.0625 14.1875 8.0625 14.1875 5 13 C4.67 12.01 4.34 11.02 4 10 C3.34 10 2.68 10 2 10 C0.3125 8.375 0.3125 8.375 -1 6 C-0.6875 2.75 -0.6875 2.75 0 0 Z " fill="#93C4EC" transform="translate(185,146)"/>
<path d="M0 0 C0.33 0 0.66 0 1 0 C1 7.26 1 14.52 1 22 C1.66 22 2.32 22 3 22 C3.22577402 27.4185766 2.46670113 31.77487721 1 37 C0.67 37 0.34 37 0 37 C0 24.79 0 12.58 0 0 Z " fill="#424D5D" transform="translate(180,112)"/>
<path d="M0 0 C5.44090757 0.64010677 8.88832839 3.39129017 13.1484375 6.63671875 C15.73637955 9.93989373 15.62445876 12.97632551 15.5625 17 C15.58634766 17.7115625 15.61019531 18.423125 15.63476562 19.15625 C15.62890625 21.25 15.62890625 21.25 15 25 C12.46484375 27.5 12.46484375 27.5 10 29 C10.309375 28.401875 10.61875 27.80375 10.9375 27.1875 C13.38467839 22.14919156 13.58508736 17.5067046 13 12 C10.37958585 5.96165434 5.68063505 3.74321265 0 1 C0 0.67 0 0.34 0 0 Z " fill="#2473B5" transform="translate(59,133)"/>
<path d="M0 0 C2.31 0.33 4.62 0.66 7 1 C6.34 3.64 5.68 6.28 5 9 C3.02 8.34 1.04 7.68 -1 7 C-0.67 4.69 -0.34 2.38 0 0 Z " fill="#5EAEE5" transform="translate(32,154)"/>
<path d="M0 0 C4.95 0 9.9 0 15 0 C15.99 1.98 16.98 3.96 18 6 C17.67 6.66 17.34 7.32 17 8 C14 4.25 14 4.25 14 2 C10.37 2 6.74 2 3 2 C3.33 3.32 3.66 4.64 4 6 C2.62437146 4.71034824 1.29233607 3.37310707 0 2 C0 1.34 0 0.68 0 0 Z " fill="#D1EAF6" transform="translate(73,112)"/>
<path d="M0 0 C0.99 0.33 1.98 0.66 3 1 C4.1875 3.5625 4.1875 3.5625 5 6 C6.45922693 5.88590407 7.91740598 5.75834456 9.375 5.625 C10.18710938 5.55539063 10.99921875 5.48578125 11.8359375 5.4140625 C14.20334191 5.17107412 14.20334191 5.17107412 16 3 C16 4.65 16 6.3 16 8 C14.06318839 8.08107583 12.1254066 8.13922475 10.1875 8.1875 C9.10855469 8.22230469 8.02960938 8.25710937 6.91796875 8.29296875 C4 8 4 8 2.15625 6.65625 C0.65822739 4.51043382 0.34714471 2.56887084 0 0 Z " fill="#EEEEED" transform="translate(163,159)"/>
<path d="M0 0 C8.03485305 -0.44707065 15.08715348 -0.59737851 22 4 C22.33 4.66 22.66 5.32 23 6 C22.32195312 5.79503906 21.64390625 5.59007813 20.9453125 5.37890625 C15.25497086 3.73170209 9.91725332 2.62123098 3.99609375 2.30859375 C2 2 2 2 0 0 Z " fill="#C7E5F7" transform="translate(208,112)"/>
<path d="M0 0 C3.875 3.75 3.875 3.75 5 6 C4.11688052 9.31169805 2.69193177 10.22180913 -0.125 12.25 C-4.17635409 14.43346663 -7.46846895 14.31800218 -12 14 C-12 13.67 -12 13.34 -12 13 C-10.41701974 12.5196682 -8.83360022 12.04078388 -7.25 11.5625 C-5.92742187 11.16224609 -5.92742187 11.16224609 -4.578125 10.75390625 C-2.39434165 10.11531506 -0.21164502 9.53224167 2 9 C1.67 8.2575 1.34 7.515 1 6.75 C0 4 0 4 0 0 Z " fill="#2379B6" transform="translate(243,160)"/>
<path d="M0 0 C0 0.66 0 1.32 0 2 C-3.3 2.33 -6.6 2.66 -10 3 C-10.33 3.99 -10.66 4.98 -11 6 C-12.9375 6.8125 -12.9375 6.8125 -15 7 C-15.66 6.34 -16.32 5.68 -17 5 C-16.360625 4.896875 -15.72125 4.79375 -15.0625 4.6875 C-14.381875 4.460625 -13.70125 4.23375 -13 4 C-12.67 3.01 -12.34 2.02 -12 1 C-10.29296875 0.234375 -10.29296875 0.234375 -8.1875 -0.25 C-7.50042969 -0.42015625 -6.81335938 -0.5903125 -6.10546875 -0.765625 C-3.80500179 -1.02170666 -2.19370273 -0.69015367 0 0 Z " fill="#A6D5F3" transform="translate(210,113)"/>
<path d="M0 0 C0.99 0 1.98 0 3 0 C3 0.66 3 1.32 3 2 C3.99 2.33 4.98 2.66 6 3 C7.38671875 4.62890625 7.38671875 4.62890625 8.6875 6.5625 C9.34298828 7.52349609 9.34298828 7.52349609 10.01171875 8.50390625 C10.50091797 9.24447266 10.50091797 9.24447266 11 10 C10.34 10.66 9.68 11.32 9 12 C4.99027798 8.32442148 2.54664585 4.81033104 0 0 Z " fill="#D4D5D5" transform="translate(145,138)"/>
<path d="M0 0 C-1.5 2.0625 -1.5 2.0625 -4 4 C-6.11219673 4.00865654 -8.01935236 3.68388949 -10.09375 3.296875 C-12.29677768 2.95378053 -13.91659495 3.2187231 -16 4 C-16.33 3.01 -16.66 2.02 -17 1 C-11.27959989 0.1679418 -5.77759884 -0.12036664 0 0 Z " fill="#90CCF0" transform="translate(219,114)"/>
<path d="M0 0 C0.66 0 1.32 0 2 0 C2.19335938 0.94101563 2.38671875 1.88203125 2.5859375 2.8515625 C3.7118112 6.2634378 3.7118112 6.2634378 7.0390625 7.4609375 C8.22242188 7.76257813 9.40578125 8.06421875 10.625 8.375 C11.81351563 8.69210938 13.00203125 9.00921875 14.2265625 9.3359375 C15.14179687 9.55507812 16.05703125 9.77421875 17 10 C17 10.33 17 10.66 17 11 C10.24520726 11.7342166 5.81475715 9.27591952 0 6 C0 4.02 0 2.04 0 0 Z " fill="#B6D6F1" transform="translate(41,124)"/>
<path d="M0 0 C1.32 0.99 2.64 1.98 4 3 C3.67 3.66 3.34 4.32 3 5 C2.34 4.67 1.68 4.34 1 4 C1 12.25 1 20.5 1 29 C0.67 29 0.34 29 0 29 C0 19.43 0 9.86 0 0 Z " fill="#595959" transform="translate(144,138)"/>
<path d="M0 0 C4.875 0.875 4.875 0.875 6 2 C6.25 4.4375 6.25 4.4375 6 7 C2.41717765 9.38854824 0.68606967 9.26898802 -3.5625 9.25 C-5.29693359 9.25773438 -5.29693359 9.25773438 -7.06640625 9.265625 C-10 9 -10 9 -12 7 C-11.09636719 7.01160156 -10.19273438 7.02320313 -9.26171875 7.03515625 C-7.49248047 7.04869141 -7.49248047 7.04869141 -5.6875 7.0625 C-4.51574219 7.07410156 -3.34398437 7.08570313 -2.13671875 7.09765625 C1.03059195 7.14899898 1.03059195 7.14899898 4 6 C4.33 5.01 4.66 4.02 5 3 C2.525 2.01 2.525 2.01 0 1 C0 0.67 0 0.34 0 0 Z " fill="#2882C9" transform="translate(53,147)"/>
<path d="M0 0 C0 0.33 0 0.66 0 1 C-1.11375 0.95875 -2.2275 0.9175 -3.375 0.875 C-7.04366025 0.58878141 -7.04366025 0.58878141 -9 3 C-11.26274788 2.64644564 -12.95088852 2.02455574 -15 1 C-15 0.34 -15 -0.32 -15 -1 C-9.20858017 -2.01603857 -5.5415502 -1.96263236 0 0 Z " fill="#A4D6F3" transform="translate(66,114)"/>
<path d="M0 0 C0.66 0 1.32 0 2 0 C2.680625 1.670625 2.680625 1.670625 3.375 3.375 C4.72465986 6.96199008 4.72465986 6.96199008 7 9 C8.65 7.35 10.3 5.7 12 4 C11.67 5.65 11.34 7.3 11 9 C10.34 9 9.68 9 9 9 C8.67 9.99 8.34 10.98 8 12 C7.34 12 6.68 12 6 12 C2.35242821 8.2384416 1.16815745 4.96466917 0 0 Z " fill="#246199" transform="translate(94,121)"/>
<path d="M0 0 C1 3.875 1 3.875 1 5 C1.66 5.33 2.32 5.66 3 6 C1.625 8 1.625 8 0 10 C-0.66 10 -1.32 10 -2 10 C-2.66 11.32 -3.32 12.64 -4 14 C-4 8.56264337 -3.80045564 4.13093004 0 0 Z " fill="#68A2D0" transform="translate(109,118)"/>
<path d="M0 0 C3.60001861 1.86207859 4.53489703 3.98986608 5.75 7.6875 C6.17985483 9.12111159 6.60082968 10.55754362 7 12 C4 12 4 12 1 11 C0.01 11 -0.98 11 -2 11 C-0.625 9.5 -0.625 9.5 1 8 C1.66 8 2.32 8 3 8 C2.505 7.05125 2.01 6.1025 1.5 5.125 C0 2 0 2 0 0 Z " fill="#61AADF" transform="translate(88,112)"/>
<path d="M0 0 C0.33 0 0.66 0 1 0 C0.67 2.31 0.34 4.62 0 7 C-7.38461538 7.49230769 -7.38461538 7.49230769 -10.5 5 C-10.995 4.34 -11.49 3.68 -12 3 C-8.0507432 3.55105909 -4.65079826 4.38935371 -1 6 C-0.67 4.02 -0.34 2.04 0 0 Z " fill="#2672AF" transform="translate(69,120)"/>
<path d="M0 0 C4.95 0.99 4.95 0.99 10 2 C10 2.66 10 3.32 10 4 C13.3 4 16.6 4 20 4 C20 4.33 20 4.66 20 5 C7.17631533 5.56853774 7.17631533 5.56853774 1 2 C0.67 1.34 0.34 0.68 0 0 Z " fill="#88BEEA" transform="translate(198,162)"/>
<path d="M0 0 C5.39795989 1.15058556 10.70987333 2.42421759 16 4 C15.67 4.66 15.34 5.32 15 6 C11.7 5.34 8.4 4.68 5 4 C5 3.34 5 2.68 5 2 C3.35 1.67 1.7 1.34 0 1 C0 0.67 0 0.34 0 0 Z " fill="#65A6DE" transform="translate(42,142)"/>
<path d="M0 0 C1.2065625 0.0309375 1.2065625 0.0309375 2.4375 0.0625 C2.4375 0.7225 2.4375 1.3825 2.4375 2.0625 C3.4275 2.3925 4.4175 2.7225 5.4375 3.0625 C5.1075 4.0525 4.7775 5.0425 4.4375 6.0625 C4.4375 5.4025 4.4375 4.7425 4.4375 4.0625 C3.4475 4.3925 2.4575 4.7225 1.4375 5.0625 C-0.75 4.125 -0.75 4.125 -2.5625 3.0625 C-3.5525 3.7225 -4.5425 4.3825 -5.5625 5.0625 C-3.15007962 0.07683121 -3.15007962 0.07683121 0 0 Z " fill="#77BEEE" transform="translate(37.5625,117.9375)"/>
<path d="M0 0 C2.97 0 5.94 0 9 0 C8.67 1.32 8.34 2.64 8 4 C5.69 4 3.38 4 1 4 C0.67 2.68 0.34 1.36 0 0 Z " fill="#ACACAC" transform="translate(168,144)"/>
<path d="M0 0 C0.33 0 0.66 0 1 0 C1.24878997 2.43694274 1.47463404 4.87238389 1.6875 7.3125 C1.79674805 8.34793945 1.79674805 8.34793945 1.90820312 9.40429688 C2.07421875 11.42578125 2.07421875 11.42578125 2 15 C1.01 15.99 0.02 16.98 -1 18 C-0.505 9.09 -0.505 9.09 0 0 Z " fill="#11477A" transform="translate(243,133)"/>
<path d="M0 0 C0.66 0 1.32 0 2 0 C2.66 1.65 3.32 3.3 4 5 C0.90522086 5 -2.10446346 4.76520744 -5.1875 4.5 C-6.27417969 4.4071875 -7.36085937 4.314375 -8.48046875 4.21875 C-9.72763672 4.11046875 -9.72763672 4.11046875 -11 4 C-11 3.67 -11 3.34 -11 3 C-7.37 3 -3.74 3 0 3 C0 2.01 0 1.02 0 0 Z " fill="#CDCDCD" transform="translate(160,135)"/>
<path d="M0 0 C0.33 0 0.66 0 1 0 C1 4.62 1 9.24 1 14 C0.01 13.01 -0.98 12.02 -2 11 C-2 10.34 -2 9.68 -2 9 C-2.66 9 -3.32 9 -4 9 C-3.67 8.34 -3.34 7.68 -3 7 C-2.34 7 -1.68 7 -1 7 C-0.67 4.69 -0.34 2.38 0 0 Z " fill="#656464" transform="translate(164,126)"/>
<path d="M0 0 C2.31 0.33 4.62 0.66 7 1 C7 1.66 7 2.32 7 3 C8.45833358 4.62514468 8.45833358 4.62514468 10 6 C5.16743695 5.58578031 3.17320782 3.53586014 0 0 Z " fill="#3780B7" transform="translate(192,160)"/>
<path d="M0 0 C1 3 1 3 0.00390625 5.26171875 C-0.47175781 6.06222656 -0.94742188 6.86273438 -1.4375 7.6875 C-2.14712891 8.89986328 -2.14712891 8.89986328 -2.87109375 10.13671875 C-3.24363281 10.75160156 -3.61617187 11.36648437 -4 12 C-4.99 11.67 -5.98 11.34 -7 11 C-4.69 7.37 -2.38 3.74 0 0 Z " fill="#97C6EB" transform="translate(240,147)"/>
<path d="M0 0 C4.20626034 1.50223584 5.73900021 4.28550034 8 8 C7.67 8.66 7.34 9.32 7 10 C6.34 8.68 5.68 7.36 5 6 C4.34 6 3.68 6 3 6 C0 2.53846154 0 2.53846154 0 0 Z " fill="#2D6B9D" transform="translate(184,150)"/>
<path d="M0 0 C0.99 0.33 1.98 0.66 3 1 C-1.75 5 -1.75 5 -4 5 C-4.66 6.32 -5.32 7.64 -6 9 C-6.33 8.01 -6.66 7.02 -7 6 C-5.90716423 4.96704564 -4.80029421 3.94892165 -3.6875 2.9375 C-3.07261719 2.36902344 -2.45773438 1.80054687 -1.82421875 1.21484375 C-0.92123047 0.61349609 -0.92123047 0.61349609 0 0 Z " fill="#2D71A5" transform="translate(197,113)"/>
<path d="M0 0 C0.33 0 0.66 0 1 0 C1.3125 2.1875 1.3125 2.1875 1 5 C-1.5 7.8125 -1.5 7.8125 -4 10 C-3.34 7.36 -2.68 4.72 -2 2 C-1.34 2 -0.68 2 0 2 C0 1.34 0 0.68 0 0 Z " fill="#A3D1EF" transform="translate(112,115)"/>
<path d="M0 0 C0.99 0 1.98 0 3 0 C2.67 2.31 2.34 4.62 2 7 C1.34 7 0.68 7 0 7 C0 4.69 0 2.38 0 0 Z " fill="#A3D6F2" transform="translate(67,115)"/>
<path d="M0 0 C0.78375 0.04125 1.5675 0.0825 2.375 0.125 C1.09336753 2.68826494 -0.05285129 2.94916059 -2.625 4.125 C-3.73875 4.681875 -3.73875 4.681875 -4.875 5.25 C-5.4525 5.53875 -6.03 5.8275 -6.625 6.125 C-3.85227273 0.18344156 -3.85227273 0.18344156 0 0 Z " fill="#73B8EE" transform="translate(195.625,120.875)"/>
<path d="M0 0 C2.97 0 5.94 0 9 0 C5.55549263 2.29633824 3.06187717 2.54016485 -1 3 C-0.67 2.01 -0.34 1.02 0 0 Z " fill="#369AE6" transform="translate(233,159)"/>
<path d="M0 0 C1.2065625 0.0309375 1.2065625 0.0309375 2.4375 0.0625 C0.7875 1.7125 -0.8625 3.3625 -2.5625 5.0625 C-3.125 3.125 -3.125 3.125 -3.5625 1.0625 C-2.5625 0.0625 -2.5625 0.0625 0 0 Z " fill="#BCBBBC" transform="translate(135.5625,147.9375)"/>
</svg>
