<?xml version="1.0" encoding="UTF-8"?>
<svg version="1.1" xmlns="http://www.w3.org/2000/svg" width="279" height="279">
<path d="M0 0 C1.258125 0.268125 2.51625 0.53625 3.8125 0.8125 C4.4725 0.1525 5.1325 -0.5075 5.8125 -1.1875 C19.16697843 -3.14875188 19.16697843 -3.14875188 23.95703125 0.40234375 C25.52752807 2.7948637 26.65515113 5.19477401 27.8125 7.8125 C29.08615338 10.01053687 30.37820448 12.19800568 31.6875 14.375 C32.7319783 16.18588121 33.77465606 17.99780838 34.8125 19.8125 C38.22538387 15.64000875 40.48051584 10.88947298 42.93945312 6.125 C45.61123512 1.01376488 45.61123512 1.01376488 47.8125 -1.1875 C52.30787928 -1.84074191 56.83824698 -1.83683579 61.375 -1.9375 C63.25155273 -2.04964844 63.25155273 -2.04964844 65.16601562 -2.1640625 C74.25794218 -2.33623996 74.25794218 -2.33623996 78.51342773 0.80834961 C80.84894212 3.36114391 82.84707423 5.9670826 84.8125 8.8125 C85.64672485 9.90763916 85.64672485 9.90763916 86.49780273 11.02490234 C87.96015849 12.94685562 89.36258908 14.89849805 90.75 16.875 C93.67559855 21.49764785 93.67559855 21.49764785 97.8125 24.8125 C97.80202637 24.16700195 97.79155273 23.52150391 97.78076172 22.85644531 C97.73912728 19.92516998 97.71315025 16.99395696 97.6875 14.0625 C97.67074219 13.04671875 97.65398437 12.0309375 97.63671875 10.984375 C97.63027344 10.0046875 97.62382812 9.025 97.6171875 8.015625 C97.60671387 7.11489258 97.59624023 6.21416016 97.58544922 5.28613281 C97.82528324 2.67323144 98.48937936 1.05585334 99.8125 -1.1875 C101.93722576 -1.24136629 104.06233652 -1.28023071 106.1875 -1.3125 C107.37085938 -1.33570312 108.55421875 -1.35890625 109.7734375 -1.3828125 C112.8125 -1.1875 112.8125 -1.1875 114.8125 0.8125 C115.1472168 3.10546875 115.1472168 3.10546875 115.26171875 6 C115.30578857 7.07958984 115.3498584 8.15917969 115.39526367 9.27148438 C115.42982666 10.44001953 115.46438965 11.60855469 115.5 12.8125 C115.53907471 14.00681641 115.57814941 15.20113281 115.6184082 16.43164062 C115.85109399 25.06875597 115.79608451 33.67782087 115.5 42.3125 C115.46543701 43.42109375 115.43087402 44.5296875 115.39526367 45.671875 C115.32915894 47.21101563 115.32915894 47.21101563 115.26171875 48.78125 C115.20504028 50.13379883 115.20504028 50.13379883 115.1472168 51.51367188 C114.8125 53.8125 114.8125 53.8125 112.8125 56.8125 C108.65307179 57.94158036 104.98555821 57.84027052 100.8125 56.8125 C97.54531291 54.1870818 95.32906884 51.07387509 93.01464844 47.59814453 C91.20943996 44.91672805 89.2863193 42.32509495 87.36938477 39.72290039 C86.384212 38.38106322 85.40788498 37.03267998 84.44116211 35.67749023 C82.11265417 32.21741294 82.11265417 32.21741294 78.8125 29.8125 C78.81773682 30.55935059 78.82297363 31.30620117 78.82836914 32.07568359 C78.84910401 35.44628057 78.86214899 38.81686414 78.875 42.1875 C78.88337891 43.363125 78.89175781 44.53875 78.90039062 45.75 C78.90361328 46.87148437 78.90683594 47.99296875 78.91015625 49.1484375 C78.91539307 50.18532715 78.92062988 51.2222168 78.92602539 52.29052734 C78.8125 54.8125 78.8125 54.8125 77.8125 56.8125 C75.50006208 56.83935412 73.1875373 56.85882841 70.875 56.875 C68.94333984 56.89240234 68.94333984 56.89240234 66.97265625 56.91015625 C63.8125 56.8125 63.8125 56.8125 62.8125 55.8125 C62.65355264 54.12266844 62.56107909 52.4265147 62.49609375 50.73046875 C62.4331311 49.12727783 62.4331311 49.12727783 62.36889648 47.49169922 C62.32966064 46.33943848 62.2904248 45.18717773 62.25 44 C62.2075415 42.83484863 62.16508301 41.66969727 62.12133789 40.46923828 C61.77437281 30.24738187 61.70862154 20.03875722 61.8125 9.8125 C57.62652399 13.47399202 55.07422409 17.96902574 52.25 22.6875 C51.76853516 23.47769531 51.28707031 24.26789063 50.79101562 25.08203125 C49.44181413 27.31276054 48.12573557 29.56048452 46.8125 31.8125 C46.20664063 32.79992187 45.60078125 33.78734375 44.9765625 34.8046875 C43.36620743 38.96567208 43.56149794 42.65226301 43.75 47.0625 C43.85918 49.99874514 43.87990285 52.87021926 43.8125 55.8125 C41.8125 57.8125 41.8125 57.8125 38.625 58.078125 C36.7378125 58.07039063 36.7378125 58.07039063 34.8125 58.0625 C33.554375 58.06765625 32.29625 58.0728125 31 58.078125 C27.8125 57.8125 27.8125 57.8125 25.8125 55.8125 C25.82086782 53.94229206 25.84182302 52.07078416 25.94433594 50.20336914 C26.43212035 40.84980077 24.9879741 34.77549967 19.8125 26.8125 C19.34070313 26.06661621 18.86890625 25.32073242 18.3828125 24.55224609 C15.77976262 20.44451035 13.13722711 16.3625976 10.421875 12.328125 C9.96780273 11.65040039 9.51373047 10.97267578 9.04589844 10.27441406 C8.63887695 9.79198242 8.23185547 9.30955078 7.8125 8.8125 C7.1525 8.8125 6.4925 8.8125 5.8125 8.8125 C5.19375 10.5140625 5.19375 10.5140625 4.5625 12.25 C2.8125 15.8125 2.8125 15.8125 1.0625 16.9375 C-1.67694361 16.78530869 -3.59725911 15.68854366 -6.0390625 14.515625 C-10.2765762 13.12880233 -14.78213774 13.59740998 -19.1875 13.8125 C-19.5175 14.8025 -19.8475 15.7925 -20.1875 16.8125 C-18.95773438 17.19921875 -17.72796875 17.5859375 -16.4609375 17.984375 C-14.8279678 18.50992847 -13.19516397 19.03599751 -11.5625 19.5625 C-10.75425781 19.81515625 -9.94601563 20.0678125 -9.11328125 20.328125 C-1.95660269 22.65550014 3.46889607 25.37753122 7.8125 31.8125 C9.71190135 36.56100337 9.18169952 41.57459573 7.75 46.375 C4.87998869 51.46695555 1.43004114 54.74515313 -4.00390625 56.9609375 C-14.33060039 59.7231698 -26.46619714 58.16847737 -35.99609375 53.41015625 C-36.71925781 52.88292969 -37.44242188 52.35570312 -38.1875 51.8125 C-39.03278937 46.31811909 -37.55051265 42.63698416 -35.1875 37.8125 C-32.01628534 38.30800229 -29.53764721 39.09260896 -26.5625 40.375 C-21.5143811 42.36716953 -16.53344712 42.07783193 -11.1875 41.8125 C-11.1875 40.4925 -11.1875 39.1725 -11.1875 37.8125 C-12.1775 37.58175781 -13.1675 37.35101563 -14.1875 37.11328125 C-23.85481006 34.76468421 -32.38293134 32.55003253 -38.1875 23.8125 C-38.8671875 20.40234375 -38.8671875 20.40234375 -39.0625 16.75 C-39.14242187 15.54214844 -39.22234375 14.33429688 -39.3046875 13.08984375 C-39.1886153 9.84369115 -39.09096879 8.3877813 -37.1875 5.8125 C-25.62433268 -3.58987343 -14.12590405 -3.5086923 0 0 Z " fill="#5599C7" transform="translate(66.1875,111.1875)"/>
<path d="M0 0 C6.64051485 4.86902025 11.31110849 9.7448148 13 18 C13.6814757 27.78966048 12.44338555 35.32573864 8 44 C9.32 44 10.64 44 12 44 C12.70492893 45.21925475 13.38825901 46.4510106 14.0625 47.6875 C14.44535156 48.37199219 14.82820313 49.05648437 15.22265625 49.76171875 C16.23077826 52.66450223 16.11584364 54.14006462 15 57 C10.0626708 60.28856591 4.44667222 61.48924656 -1.375 60.5 C-4.5035197 59.78849719 -5.9480949 59.04523762 -8.40234375 56.90625 C-11.65955663 54.51599453 -13.21684875 54.69047298 -17.1875 55 C-27.22771763 55.27166316 -33.83631404 52.01271552 -41.0859375 45.16015625 C-47.3700518 38.0680844 -48.54741274 30.05264384 -48.3359375 20.87109375 C-47.68924643 13.41910707 -44.6497321 8.25653755 -39.3125 3.125 C-28.19009052 -5.61994277 -12.36663773 -7.5679595 0 0 Z M-27 14 C-30.3435476 17.51072498 -31.27275047 20.27036909 -31.5 25 C-31.25934063 30.71566003 -29.13790287 33.93106174 -25.0625 37.875 C-22.55059261 39.2451313 -20.81972723 39.23497727 -18 39 C-18.061875 38.071875 -18.12375 37.14375 -18.1875 36.1875 C-18 33 -18 33 -16.875 31.25 C-14.25491205 29.5032747 -12.09845439 28.61969088 -9 28 C-6.125 29.375 -6.125 29.375 -4 31 C-2.59913971 29.81334379 -2.59913971 29.81334379 -2.6875 26.4375 C-2.79109403 21.6290105 -3.88079564 17.72984225 -7 14 C-14.41175588 9.23721103 -19.69042003 9.2936306 -27 14 Z " fill="#9ED6F7" transform="translate(231,114)"/>
<path d="M0 0 C5.17316384 -0.78779145 9.96926809 -1.42939868 14.4140625 1.69921875 C16.82346251 4.34955876 18.91400964 7.08668465 21 10 C21.97497372 11.32408802 22.95162532 12.64694169 23.9296875 13.96875 C25.42638334 15.99661713 26.91329068 18.02836456 28.37133789 20.08422852 C30.69201914 23.57522509 30.69201914 23.57522509 34 26 C33.98428955 25.03175293 33.98428955 25.03175293 33.96826172 24.04394531 C33.92662728 21.11266998 33.90065025 18.18145696 33.875 15.25 C33.85824219 14.23421875 33.84148437 13.2184375 33.82421875 12.171875 C33.81455078 10.70234375 33.81455078 10.70234375 33.8046875 9.203125 C33.78897705 7.85202637 33.78897705 7.85202637 33.77294922 6.47363281 C34.01278324 3.86073144 34.67687936 2.24335334 36 0 C38.12472576 -0.05386629 40.24983652 -0.09273071 42.375 -0.125 C43.55835938 -0.14820312 44.74171875 -0.17140625 45.9609375 -0.1953125 C49 0 49 0 51 2 C51.3347168 4.29296875 51.3347168 4.29296875 51.44921875 7.1875 C51.49328857 8.26708984 51.5373584 9.34667969 51.58276367 10.45898438 C51.61732666 11.62751953 51.65188965 12.79605469 51.6875 14 C51.72657471 15.19431641 51.76564941 16.38863281 51.8059082 17.61914062 C52.03859399 26.25625597 51.98358451 34.86532087 51.6875 43.5 C51.63565552 45.16289062 51.63565552 45.16289062 51.58276367 46.859375 C51.53869385 47.88546875 51.49462402 48.9115625 51.44921875 49.96875 C51.41143311 50.87044922 51.37364746 51.77214844 51.3347168 52.70117188 C51 55 51 55 49 58 C44.84057179 59.12908036 41.17305821 59.02777052 37 58 C33.73281291 55.3745818 31.51656884 52.26137509 29.20214844 48.78564453 C27.39693996 46.10422805 25.4738193 43.51259495 23.55688477 40.91040039 C22.571712 39.56856322 21.59538498 38.22017998 20.62866211 36.86499023 C18.30015417 33.40491294 18.30015417 33.40491294 15 31 C15.00785522 32.12027588 15.00785522 32.12027588 15.01586914 33.26318359 C15.03660401 36.63378057 15.04964899 40.00436414 15.0625 43.375 C15.07087891 44.550625 15.07925781 45.72625 15.08789062 46.9375 C15.09272461 48.61972656 15.09272461 48.61972656 15.09765625 50.3359375 C15.10551147 51.89127197 15.10551147 51.89127197 15.11352539 53.47802734 C15 56 15 56 14 58 C11.68756208 58.02685412 9.3750373 58.04632841 7.0625 58.0625 C5.77472656 58.07410156 4.48695313 58.08570313 3.16015625 58.09765625 C0 58 0 58 -1 57 C-1.15899778 55.32192115 -1.25143714 53.63746699 -1.31640625 51.953125 C-1.35854248 50.89029297 -1.40067871 49.82746094 -1.4440918 48.73242188 C-1.4831665 47.58322266 -1.52224121 46.43402344 -1.5625 45.25 C-1.6035083 44.08017578 -1.6445166 42.91035156 -1.68676758 41.70507812 C-1.9294661 34.30453202 -2.12681936 26.90440207 -2.1875 19.5 C-2.20047119 18.6843457 -2.21344238 17.86869141 -2.22680664 17.02832031 C-2.23586946 11.15802908 -1.32779344 5.71139251 0 0 Z " fill="#EDEEEE" transform="translate(130,110)"/>
<path d="M0 0 C0.87214639 2.94266187 1.01053444 5.3241991 0.8125 8.375 C0.72568289 13.14994115 2.0080676 15.35358239 5 19 C5.10853559 17.74558299 5.10853559 17.74558299 3.51171875 16.265625 C1.67545976 13.51360894 1.68350796 12.01779836 1.8125 8.75 C1.83957031 7.85796875 1.86664062 6.9659375 1.89453125 6.046875 C1.92933594 5.37140625 1.96414062 4.6959375 2 4 C6.32734391 1.77076223 9.28400182 2.07529447 14 3 C13.67 5.64 13.34 8.28 13 11 C16.8800498 13.26336238 20.48924954 14.42711192 24.875 15.4375 C30.72036558 16.83167415 36.43440075 18.30313753 40.6796875 22.765625 C43.26994734 27.14914165 42.78710526 32.10458923 42 37 C39.9353661 41.12217284 37.50058515 43.36149887 33.2734375 45.16015625 C29.55621887 46.11385793 26.0617696 46.34215825 22.25 46.3125 C21.54987793 46.31048584 20.84975586 46.30847168 20.12841797 46.30639648 C13.65083787 46.18185632 7.8197528 44.9098764 2 42 C2.33 39.36 2.66 36.72 3 34 C4.60433809 34.47859241 6.20846416 34.95789558 7.8125 35.4375 C8.70582031 35.70433594 9.59914063 35.97117188 10.51953125 36.24609375 C12.35473055 36.80387873 14.18033726 37.39344575 16 38 C21.24689773 38.25804415 25.05295901 37.97881639 30 36 C30.76716851 33.14921909 30.76716851 33.14921909 31 30 C28.64194922 26.46292382 25.28623466 26.13872206 21.3125 25.3125 C20.13300781 25.06113281 18.95351563 24.80976563 17.73828125 24.55078125 C16.83464844 24.36902344 15.93101563 24.18726563 15 24 C15.92683594 24.26554687 16.85367188 24.53109375 17.80859375 24.8046875 C19.00613281 25.15789062 20.20367187 25.51109375 21.4375 25.875 C22.63246094 26.22304687 23.82742187 26.57109375 25.05859375 26.9296875 C28 28 28 28 29 30 C19.32050107 28.85013045 8.66545995 27.01183685 1.3125 20.0625 C-2.4774226 15.03162929 -2.37725411 8.05964421 -2 2 C-1.34 1.34 -0.68 0.68 0 0 Z " fill="#3F8FD3" transform="translate(29,119)"/>
<path d="M0 0 C3.3 0 6.6 0 10 0 C10.32871094 1.21236328 10.32871094 1.21236328 10.6640625 2.44921875 C12.64434123 9.12259706 13.98346471 13.28766972 20 17 C23.01490557 18.00496852 25.04181692 18.10335303 28.1875 18.0625 C29.08855469 18.05347656 29.98960937 18.04445312 30.91796875 18.03515625 C31.94857422 18.01775391 31.94857422 18.01775391 33 18 C32.505 17.236875 32.01 16.47375 31.5 15.6875 C30 13 30 13 30 10 C33 8 33 8 35.0625 8.25 C37 9 37 9 39 11 C40.32 11.33 41.64 11.66 43 12 C43.66 8.04 44.32 4.08 45 0 C48.3 0 51.6 0 55 0 C55.41572473 6.65159572 54.44920853 11.79188178 50.3359375 17.1796875 C45.74543959 22.1725398 41.5384071 24.43955176 35 26 C34.01 26.33 33.02 26.66 32 27 C24.75876957 27.64407386 17.82446736 28.2573534 11.8125 23.68359375 C1.17820658 13.80561862 1.17820658 13.80561862 0 6 C-0.125 2.5625 -0.125 2.5625 0 0 Z " fill="#2477CF" transform="translate(186,138)"/>
<path d="M0 0 C6.64051485 4.86902025 11.31110849 9.7448148 13 18 C13.6814757 27.78966048 12.44338555 35.32573864 8 44 C9.32 44 10.64 44 12 44 C12.70492893 45.21925475 13.38825901 46.4510106 14.0625 47.6875 C14.44535156 48.37199219 14.82820313 49.05648437 15.22265625 49.76171875 C16.23077826 52.66450223 16.11584364 54.14006462 15 57 C10.0626708 60.28856591 4.44667222 61.48924656 -1.375 60.5 C-4.5035197 59.78849719 -5.9480949 59.04523762 -8.40234375 56.90625 C-11.65955663 54.51599453 -13.21684875 54.69047298 -17.1875 55 C-27.22771763 55.27166316 -33.83631404 52.01271552 -41.0859375 45.16015625 C-47.3700518 38.0680844 -48.54741274 30.05264384 -48.3359375 20.87109375 C-47.68924643 13.41910707 -44.6497321 8.25653755 -39.3125 3.125 C-28.19009052 -5.61994277 -12.36663773 -7.5679595 0 0 Z M-41.8125 8.875 C-46.59306291 15.70437559 -47.71488327 21.3735521 -46.83203125 29.74609375 C-44.6239502 38.38145299 -36.57489595 45.45787179 -29.2109375 50.13671875 C-22.10611502 52.91086322 -12.3270377 51.5770263 -5.25 49.109375 C0.83588072 46.1086977 5.97592534 41.04814933 9 35 C9.97506529 31.35751471 10.55634131 27.74169977 11 24 C11.14501953 22.92492187 11.14501953 22.92492187 11.29296875 21.828125 C11.72931634 15.93153588 9.60967939 11.48597127 6 7 C-1.22353414 0.67790522 -7.83827169 -2.28927532 -17.5 -2.25 C-18.7684375 -2.25515625 -20.036875 -2.2603125 -21.34375 -2.265625 C-29.90218988 -1.643858 -36.15091684 2.63361616 -41.8125 8.875 Z " fill="#458BBF" transform="translate(231,114)"/>
<path d="M0 0 C-0.14095064 1.6254308 -0.28792087 3.25034051 -0.4375 4.875 C-0.51871094 5.77992187 -0.59992188 6.68484375 -0.68359375 7.6171875 C-1 10 -1 10 -2 12 C-2.67804688 11.7834375 -3.35609375 11.566875 -4.0546875 11.34375 C-11.36072765 9.15800946 -18.57884439 7.52628146 -26 10 C-25.76097486 12.98226415 -25.76097486 12.98226415 -24 16 C-20.81158303 17.49634618 -17.40969612 18.15918938 -14 19 C-0.18734863 23.36479783 -0.18734863 23.36479783 3.09765625 28.82421875 C4.94978011 33.29016242 4.8321896 38.49870285 3.3125 43.06640625 C1.0797504 47.37375235 -1.77379436 49.75752354 -6 52 C-17.43051954 54.9063949 -28.13323629 52.69932382 -39 49 C-40.13905625 44.388017 -39.50576582 41.51729745 -38 37 C-34.88200997 37.75035741 -31.81929597 38.63363411 -28.75 39.5625 C-27.85796875 39.83191406 -26.9659375 40.10132813 -26.046875 40.37890625 C-25.37140625 40.58386719 -24.6959375 40.78882813 -24 41 C-24 40.67 -24 40.34 -24 40 C-19.05 39.505 -19.05 39.505 -14 39 C-13.34 37.35 -12.68 35.7 -12 34 C-13.21558594 33.66226563 -14.43117188 33.32453125 -15.68359375 32.9765625 C-17.26834667 32.52645516 -18.85297578 32.07591177 -20.4375 31.625 C-21.23994141 31.40328125 -22.04238281 31.1815625 -22.86914062 30.953125 C-23.63291016 30.73398438 -24.39667969 30.51484375 -25.18359375 30.2890625 C-25.89056396 30.09006348 -26.59753418 29.89106445 -27.32592773 29.68603516 C-29 29 -29 29 -30 27 C-27.86105518 27.47532107 -25.72264756 27.95219046 -23.5859375 28.4375 C-21.9101282 28.80202649 -20.22758472 29.13731827 -18.5390625 29.4375 C-14.95771806 30.10379664 -12.43593824 30.70937451 -9.375 32.75 C-8 35 -8 35 -7.8125 38.0625 C-9 41 -9 41 -12.0625 42.875 C-21.3483924 45.98905685 -28.35893346 42.68826011 -37 39 C-37.33 41.64 -37.66 44.28 -38 47 C-26.57502179 50.63522034 -14.04014948 52.56086347 -3 47 C-0.01388466 44.62642114 0.86101751 42.94534318 1.4140625 39.18359375 C1.63142411 34.5217593 1.62512061 31.11132554 -0.6875 27 C-5.7917595 23.91818294 -11.27991086 22.56677766 -17 21 C-18.73377874 20.47328241 -20.46377566 19.93374371 -22.1875 19.375 C-22.88230469 19.15585938 -23.57710937 18.93671875 -24.29296875 18.7109375 C-26 18 -26 18 -28 16 C-27.71269945 13.66055264 -27.38063221 11.3260857 -27 9 C-28.16983444 7.60318432 -28.16983444 7.60318432 -31.4375 7.875 C-34.84105584 7.7473719 -34.84105584 7.7473719 -37 9 C-37.48761453 14.38543155 -37.79079255 18.61058882 -34.5 23.125 C-33.675 24.07375 -32.85 25.0225 -32 26 C-36.29245529 24.46698025 -38.01922537 22.0322912 -40 18 C-40.81671555 12.95734342 -41.16562641 7.8098978 -38.0625 3.5 C-27.9367895 -4.76588612 -11.95995973 -3.47926101 0 0 Z " fill="#8ACAF3" transform="translate(69,114)"/>
<path d="M0 0 C0.33 0 0.66 0 1 0 C2.19552647 14.40149576 1.77266539 28.58041695 1 43 C-0.32 43 -1.64 43 -3 43 C-3.33 43.33 -3.66 43.66 -4 44 C-9.12284243 44.58786716 -9.12284243 44.58786716 -12 44 C-14.125 41.4375 -14.125 41.4375 -16 38 C-16.86911714 36.9359407 -17.76744373 35.89533488 -18.6875 34.875 C-21.5607313 31.58814158 -24.23813761 28.16498852 -26.875 24.6875 C-28.04675781 23.14642578 -28.04675781 23.14642578 -29.2421875 21.57421875 C-31 19 -31 19 -31 17 C-29.06372231 16.89192869 -27.12572244 16.8143775 -25.1875 16.75 C-23.56908203 16.68039063 -23.56908203 16.68039063 -21.91796875 16.609375 C-19 17 -19 17 -17.11328125 18.890625 C-16 21 -16 21 -16 23 C-15.34 23 -14.68 23 -14 23 C-13.67 21.02 -13.34 19.04 -13 17 C-9.37 17 -5.74 17 -2 17 C-1.67 21.29 -1.34 25.58 -1 30 C-0.67 20.1 -0.34 10.2 0 0 Z " fill="#D5D5D5" transform="translate(180,121)"/>
<path d="M0 0 C4.62 0 9.24 0 14 0 C12.54072589 4.37782232 11.38442 7.36369561 9.1015625 11.1875 C8.53953125 12.13367188 7.9775 13.07984375 7.3984375 14.0546875 C6.81320313 15.02664062 6.22796875 15.99859375 5.625 17 C5.0475 17.97195312 4.47 18.94390625 3.875 19.9453125 C3.31039062 20.89148438 2.74578125 21.83765625 2.1640625 22.8125 C1.34808594 24.18414307 1.34808594 24.18414307 0.515625 25.58349609 C-1 28 -1 28 -3.3984375 30.9765625 C-5.87865256 35.65872459 -5.42458829 40.17092591 -5.25 45.375 C-5.22292969 46.90833984 -5.22292969 46.90833984 -5.1953125 48.47265625 C-5.14839491 50.98274749 -5.08276729 53.49087764 -5 56 C-8.18483906 56.85540752 -10.94382604 57.10600229 -14.25 57.0625 C-16.60125 57.0315625 -16.60125 57.0315625 -19 57 C-19 51.39 -19 45.78 -19 40 C-18.67 40 -18.34 40 -18 40 C-18 41.98 -18 43.96 -18 46 C-13.545 45.505 -13.545 45.505 -9 45 C-8.98582031 44.29875 -8.97164062 43.5975 -8.95703125 42.875 C-8.60022741 35.77749655 -7.21169262 31.72358227 -3 26 C-6.63 26 -10.26 26 -14 26 C-14 25.34 -14 24.68 -14 24 C-13.34 24 -12.68 24 -12 24 C-11.74089844 23.13375 -11.48179688 22.2675 -11.21484375 21.375 C-9.98015675 17.94487277 -8.44798059 15.11408407 -6.5625 12 C-4.17483479 8.03946679 -2.07841692 4.15683384 0 0 Z " fill="#76BCEE" transform="translate(114,112)"/>
<path d="M0 0 C2.12472576 -0.05386629 4.24983652 -0.09273071 6.375 -0.125 C7.55835938 -0.14820312 8.74171875 -0.17140625 9.9609375 -0.1953125 C13 0 13 0 15 2 C15.11711785 4.94781264 15.1128041 7.79216263 15.01171875 10.734375 C14.98906448 11.60515686 14.96641022 12.47593872 14.94306946 13.37310791 C14.89304724 15.21925289 14.83807222 17.06526923 14.77856445 18.91113281 C14.68832079 21.7244124 14.61330965 24.53777033 14.54101562 27.3515625 C14.49048603 29.14585898 14.43908168 30.94013108 14.38671875 32.734375 C14.36373215 33.57208435 14.34074554 34.4097937 14.31706238 35.27288818 C14.17314652 39.60073982 13.83786441 43.73716598 13 48 C12.67 48 12.34 48 12 48 C12 41.4 12 34.8 12 28 C8.37 28 4.74 28 1 28 C1 30.31 1 32.62 1 35 C0.01 34.67 -0.98 34.34 -2 34 C-2 33.01 -2 32.02 -2 31 C-1.34 31 -0.68 31 0 31 C-0.48726562 29.58267578 -0.48726562 29.58267578 -0.984375 28.13671875 C-2.34045111 23.37727495 -2.29335381 18.72954434 -2.25 13.8125 C-2.25773438 12.92369141 -2.26546875 12.03488281 -2.2734375 11.11914062 C-2.27085937 10.26126953 -2.26828125 9.40339844 -2.265625 8.51953125 C-2.26336914 7.74714111 -2.26111328 6.97475098 -2.25878906 6.17895508 C-1.97030724 3.74999259 -1.20815838 2.110078 0 0 Z " fill="#F0F0F1" transform="translate(166,110)"/>
<path d="M0 0 C0.87214639 2.94266187 1.01053444 5.3241991 0.8125 8.375 C0.72568289 13.14994115 2.0080676 15.35358239 5 19 C5.10853559 17.74558299 5.10853559 17.74558299 3.51171875 16.265625 C1.67545976 13.51360894 1.68350796 12.01779836 1.8125 8.75 C1.83957031 7.85796875 1.86664062 6.9659375 1.89453125 6.046875 C1.92933594 5.37140625 1.96414062 4.6959375 2 4 C6.32734391 1.77076223 9.28400182 2.07529447 14 3 C13.67 5.64 13.34 8.28 13 11 C17.8176071 13.81027081 22.67449542 15.0185144 28.09765625 16.25390625 C30.85767622 16.9634134 33.3828361 17.88110241 36 19 C36 19.33 36 19.66 36 20 C27.42 20.33 18.84 20.66 10 21 C10.33 21.66 10.66 22.32 11 23 C13.82962943 23.91202932 16.630787 24.73518555 19.5 25.5 C22.369213 26.26481445 25.17037057 27.08797068 28 28 C28.33 28.66 28.66 29.32 29 30 C19.32050107 28.85013045 8.66545995 27.01183685 1.3125 20.0625 C-2.4774226 15.03162929 -2.37725411 8.05964421 -2 2 C-1.34 1.34 -0.68 0.68 0 0 Z " fill="#4D92DC" transform="translate(29,119)"/>
<path d="M0 0 C0.33 0 0.66 0 1 0 C0.71020219 9.12863097 -2.59530728 14.59530728 -9 21 C-5.7 20.34 -2.4 19.68 1 19 C4.05578873 24.37818816 4.05578873 24.37818816 3.8125 27.08984375 C3 29 3 29 -0.5625 30.8125 C-5.16437654 32.31078538 -8.29530051 32.13823375 -13 31 C-14.35158203 29.99259766 -14.35158203 29.99259766 -15.73046875 28.96484375 C-19.66363315 26.60118581 -22.75173864 26.57217552 -27.1875 26.625 C-35.97712759 26.40708318 -42.37039791 24.27064685 -48.96484375 18.1875 C-51.67735337 15.22607774 -53.21772751 12.98089778 -54 9 C-53.34 9.680625 -52.68 10.36125 -52 11.0625 C-42.77535163 20.51690223 -42.77535163 20.51690223 -30.375 23.3125 C-20.65251915 23.1309599 -13.73790898 21.61296962 -6.62109375 14.75390625 C-2.44960179 10.2406535 -1.29430729 5.87416385 0 0 Z " fill="#499FDF" transform="translate(241,141)"/>
<path d="M0 0 C3.3 0 6.6 0 10 0 C10 8.91 10 17.82 10 27 C7.01122021 28.4943899 5.14997454 27.91874257 2 27 C-2.43246264 19.82363191 -1.3667666 9.04729079 -1 1 C-0.67 0.67 -0.34 0.34 0 0 Z " fill="#CFCFCF" transform="translate(132,138)"/>
<path d="M0 0 C4.56216465 -0.14532035 9.12373362 -0.23408477 13.6875 -0.3125 C15.62786133 -0.3753418 15.62786133 -0.3753418 17.60742188 -0.43945312 C19.47817383 -0.46362305 19.47817383 -0.46362305 21.38671875 -0.48828125 C23.10701294 -0.52755737 23.10701294 -0.52755737 24.86206055 -0.56762695 C28.95751205 0.17320591 30.41475605 1.81832115 33 5 C33.82772313 8.09496473 33.64290362 10.86960015 33 14 C31.375 16.1875 31.375 16.1875 29 17 C25.875 16.5625 25.875 16.5625 23 15 C21.75 12 21.75 12 21 9 C18.28414301 6.28414301 15.24706611 5.87807663 11.625 5 C3.49212034 3.00573066 3.49212034 3.00573066 0 1 C0 0.67 0 0.34 0 0 Z " fill="#0B47AE" transform="translate(38,139)"/>
<path d="M0 0 C1.93627769 -0.10807131 3.87427756 -0.1856225 5.8125 -0.25 C7.43091797 -0.31960937 7.43091797 -0.31960937 9.08203125 -0.390625 C12 0 12 0 13.88671875 1.890625 C15 4 15 4 15 6 C15.66 6 16.32 6 17 6 C17.33 4.02 17.66 2.04 18 0 C21.63 0 25.26 0 29 0 C29.25 9.625 29.25 9.625 27 13 C27 12.01 27 11.02 27 10 C25.741875 10.165 24.48375 10.33 23.1875 10.5 C20.73543415 10.82158241 18.48349306 11 16 11 C13.65789079 11.63514826 11.32315031 12.2986716 9 13 C7.86652945 11.77864002 6.74358413 10.54750819 5.625 9.3125 C4.99851563 8.62800781 4.37203125 7.94351563 3.7265625 7.23828125 C1.92769063 4.90625957 0.96069528 2.77048993 0 0 Z " fill="#A4A4A4" transform="translate(149,138)"/>
<path d="M0 0 C4.95 0 9.9 0 15 0 C15.92232422 1.64548828 15.92232422 1.64548828 16.86328125 3.32421875 C17.67964917 4.77866735 18.49605756 6.23309323 19.3125 7.6875 C19.71662109 8.40873047 20.12074219 9.12996094 20.53710938 9.87304688 C20.93349609 10.57880859 21.32988281 11.28457031 21.73828125 12.01171875 C22.12322754 12.70056152 22.50817383 13.3894043 22.90478516 14.09912109 C23.83291 15.70999493 24.83662172 17.27694894 25.85546875 18.83203125 C26.23316406 19.54746094 26.61085938 20.26289063 27 21 C26.67 21.99 26.34 22.98 26 24 C25.54560547 23.04287109 25.54560547 23.04287109 25.08203125 22.06640625 C24.66308594 21.24011719 24.24414062 20.41382813 23.8125 19.5625 C23.20341797 18.32693359 23.20341797 18.32693359 22.58203125 17.06640625 C21.1491227 14.80302899 21.1491227 14.80302899 18.57421875 14.15234375 C16.09358632 14.00553849 14.34290662 14.21903113 12 15 C12.55880859 16.04800781 12.55880859 16.04800781 13.12890625 17.1171875 C13.60199219 18.02726562 14.07507813 18.93734375 14.5625 19.875 C15.03816406 20.77992188 15.51382813 21.68484375 16.00390625 22.6171875 C16.33261719 23.40351563 16.66132812 24.18984375 17 25 C16.67 25.66 16.34 26.32 16 27 C13.98349629 24.0108298 11.98894445 21.0075739 10 18 C9.43007324 17.14075928 9.43007324 17.14075928 8.84863281 16.26416016 C7.62194072 14.40934259 6.40395304 12.54904547 5.1875 10.6875 C4.59207397 9.7900708 4.59207397 9.7900708 3.98461914 8.87451172 C2.00500446 5.82783122 0.89434771 3.57739084 0 0 Z " fill="#8EC8F0" transform="translate(73,112)"/>
<path d="M0 0 C8.57142857 1 8.57142857 1 12 2 C12 2.66 12 3.32 12 4 C11.27554688 4.08636719 10.55109375 4.17273438 9.8046875 4.26171875 C3.35229209 5.19946688 -0.56861375 6.1141126 -5 11 C-7.48992843 15.26844874 -7.59913002 20.15791261 -8 25 C-8.33 23.68 -8.66 22.36 -9 21 C-12.3 21 -15.6 21 -19 21 C-19.55373276 15.46267243 -18.0746117 11.51677485 -15 7 C-10.5549273 3.49073208 -5.6219619 2 0 2 C0 1.34 0 0.68 0 0 Z " fill="#59A2E5" transform="translate(205,117)"/>
<path d="M0 0 C6.6 0 13.2 0 20 0 C18 5 18 5 16 8 C15.54084493 10.96842658 15.54084493 10.96842658 15.375 14.1875 C15.30023438 15.27417969 15.22546875 16.36085937 15.1484375 17.48046875 C15.09945312 18.31191406 15.05046875 19.14335937 15 20 C11.7 20 8.4 20 5 20 C4.97421875 19.20335937 4.9484375 18.40671875 4.921875 17.5859375 C4.57429444 11.09250069 4.12700194 7.05890561 0 2 C0 1.34 0 0.68 0 0 Z " fill="#1862C3" transform="translate(91,138)"/>
<path d="M0 0 C3.3 0 6.6 0 10 0 C10.3310316 5.29650555 9.98681703 10.43061573 7 15 C3.07465903 16.56489094 -1.4600781 16.36109095 -5.63671875 16.62109375 C-6.41660156 16.74613281 -7.19648438 16.87117188 -8 17 C-8.33 17.66 -8.66 18.32 -9 19 C-11.64752004 16.42215154 -13.94432065 14.08351902 -16 11 C-14.25 9.4375 -14.25 9.4375 -12 8 C-8.99611368 8.26504879 -8.16695725 8.83304275 -6 11 C-4.68 11.33 -3.36 11.66 -2 12 C-1.34 8.04 -0.68 4.08 0 0 Z " fill="#226BC9" transform="translate(231,138)"/>
<path d="M0 0 C3.3 0 6.6 0 10 0 C10.32871094 1.21236328 10.32871094 1.21236328 10.6640625 2.44921875 C12.66497426 9.19212872 14.05907338 13.12548264 20 17 C20.66 17.66 21.32 18.32 22 19 C21.030625 19.28875 20.06125 19.5775 19.0625 19.875 C15.89335797 20.64214682 15.89335797 20.64214682 15 23 C14.34 23 13.68 23 13 23 C12.67 21.35 12.34 19.7 12 18 C11.278125 17.9175 10.55625 17.835 9.8125 17.75 C6.27486443 16.80663051 4.55632349 15.62541331 2 13 C0.27699612 8.56941859 -0.23084474 4.73231713 0 0 Z " fill="#1D70CB" transform="translate(186,138)"/>
<path d="M0 0 C4.44992741 2.18450982 7.3003743 4.86246839 10 9 C10.28614917 11.76133953 10.38589883 14.08145612 10.25 16.8125 C10.23195312 17.50537109 10.21390625 18.19824219 10.1953125 18.91210938 C10.14851064 20.60867664 10.07677624 22.30452476 10 24 C8.68 24 7.36 24 6 24 C5.34 23.34 4.68 22.68 4 22 C0.55834679 22.35299007 -1.06872538 23.04581692 -4 25 C-3.7525 25.86625 -3.7525 25.86625 -3.5 26.75 C-3 29 -3 29 -3 33 C-9.62227213 32.4387905 -13.63889188 31.62345346 -18.25 26.5 C-21.66058128 21.62774103 -21.47554862 16.74247388 -21 11 C-19.52061049 6.38778563 -17.1595868 3.54179899 -13.16015625 0.91796875 C-8.86139658 -0.90880977 -4.54737034 -0.74186707 0 0 Z M-15 5 C-18.3435476 8.51072498 -19.27275047 11.27036909 -19.5 16 C-19.25934063 21.71566003 -17.13790287 24.93106174 -13.0625 28.875 C-10.55059261 30.2451313 -8.81972723 30.23497727 -6 30 C-6.061875 29.071875 -6.12375 28.14375 -6.1875 27.1875 C-6 24 -6 24 -4.875 22.25 C-2.25491205 20.5032747 -0.09845439 19.61969088 3 19 C5.875 20.375 5.875 20.375 8 22 C9.40086029 20.81334379 9.40086029 20.81334379 9.3125 17.4375 C9.20890597 12.6290105 8.11920436 8.72984225 5 5 C-2.41175588 0.23721103 -7.69042003 0.2936306 -15 5 Z " fill="#4B92CA" transform="translate(219,123)"/>
<path d="M0 0 C1.80078125 2.21484375 1.80078125 2.21484375 3.3125 4.9375 C3.82425781 5.83339844 4.33601563 6.72929687 4.86328125 7.65234375 C6 10 6 10 6 12 C3.03 12 0.06 12 -3 12 C-2.17113281 13.093125 -1.34226562 14.18625 -0.48828125 15.3125 C2.78488457 20.54956531 2.38540786 25.02362302 1.8125 31 C1.74224609 31.96550781 1.67199219 32.93101562 1.59960938 33.92578125 C1.42427607 36.28693647 1.22399977 38.64304947 1 41 C3.31 41 5.62 41 8 41 C8 41.33 8 41.66 8 42 C1.9453125 42.9765625 1.9453125 42.9765625 0 43 C-2 41 -2 41 -2.1953125 38.1796875 C-2.17210938 37.08914062 -2.14890625 35.99859375 -2.125 34.875 C-2.10695313 33.77929688 -2.08890625 32.68359375 -2.0703125 31.5546875 C-2.04710938 30.71164063 -2.02390625 29.86859375 -2 29 C-1.34 29 -0.68 29 0 29 C-0.34660564 23.51406937 -0.8345554 19.62641903 -4 15 C-5.01965427 12.67518826 -6.02059602 10.34205301 -7 8 C-7.391875 7.2575 -7.78375 6.515 -8.1875 5.75 C-9 4 -9 4 -9 1 C-5.64278112 -1.11380448 -3.75812885 -1.2718058 0 0 Z " fill="#549CDC" transform="translate(94,126)"/>
<path d="M0 0 C4.64704432 3.16394507 6.74757511 7.62373705 8 13 C8 14.65 8 16.3 8 18 C4.7 18 1.4 18 -2 18 C-2.4021875 16.4221875 -2.4021875 16.4221875 -2.8125 14.8125 C-4.67753785 8.78529657 -4.67753785 8.78529657 -9.1875 4.6875 C-9.785625 4.460625 -10.38375 4.23375 -11 4 C-11 3.34 -11 2.68 -11 2 C-11.66 1.67 -12.32 1.34 -13 1 C-8.64341334 -0.45219555 -4.54866355 -0.6258961 0 0 Z " fill="#7ABCE8" transform="translate(233,120)"/>
<path d="M0 0 C4.62 0 9.24 0 14 0 C11.95872431 6.12382707 9.31141181 10.90023661 6 16.375 C5.4534375 17.30183594 4.906875 18.22867188 4.34375 19.18359375 C3.8178125 20.05886719 3.291875 20.93414062 2.75 21.8359375 C2.27046875 22.63563965 1.7909375 23.4353418 1.296875 24.25927734 C0.86890625 24.83371582 0.4409375 25.4081543 0 26 C-0.66 26 -1.32 26 -2 26 C-0.57250019 22.20950293 1.16236542 18.72877544 3.125 15.1875 C3.66382812 14.21167969 4.20265625 13.23585938 4.7578125 12.23046875 C5.16773437 11.49441406 5.57765625 10.75835937 6 10 C3.69 9.67 1.38 9.34 -1 9 C-1 9.66 -1 10.32 -1 11 C-1.99 11.33 -2.98 11.66 -4 12 C-5.61907556 14.44580173 -5.61907556 14.44580173 -7.0625 17.375 C-8.61537494 20.37011248 -10.12656711 23.18985066 -12 26 C-12.66 26 -13.32 26 -14 26 C-14 25.34 -14 24.68 -14 24 C-13.34 24 -12.68 24 -12 24 C-11.74089844 23.13375 -11.48179688 22.2675 -11.21484375 21.375 C-9.98015675 17.94487277 -8.44798059 15.11408407 -6.5625 12 C-4.17483479 8.03946679 -2.07841692 4.15683384 0 0 Z " fill="#9FCEEA" transform="translate(114,112)"/>
<path d="M0 0 C0.33 0 0.66 0 1 0 C0.71020219 9.12863097 -2.59530728 14.59530728 -9 21 C-5.7 20.34 -2.4 19.68 1 19 C4.05578873 24.37818816 4.05578873 24.37818816 3.8125 27.08984375 C3 29 3 29 -0.5625 30.8125 C-5.16437654 32.31078538 -8.29530051 32.13823375 -13 31 C-16.45165155 29.04623497 -19.34493528 26.95007191 -22 24 C-19.44890427 24.47242514 -17.95153629 25.03461694 -15.8125 26.5625 C-11.8683041 28.57842235 -8.34666621 28.25568625 -4 28 C-4 26.68 -4 25.36 -4 24 C-6.31 23.34 -8.62 22.68 -11 22 C-10.42122058 18.44911002 -9.15090275 16.87958711 -6.625 14.375 C-2.63279402 10.03029945 -1.22510402 5.6938168 0 0 Z " fill="#7FBFE3" transform="translate(241,141)"/>
<path d="M0 0 C3.42727515 0.44222905 6.11792009 1.49786515 9.1875 3 C14.05989224 5.26393983 18.67452015 5.77764176 24 6 C24 6.33 24 6.66 24 7 C14.81253055 7.73304278 8.2301098 6.08587011 0 2 C-0.33 5.63 -0.66 9.26 -1 13 C10.25985787 16.83314311 21.45543438 19.44776466 33 15 C36.59968601 13.11445019 39.23391294 10.9709824 42 8 C41.43197994 11.40812038 40.440804 12.90863769 37.8125 15.125 C37.24144531 15.62257812 36.67039063 16.12015625 36.08203125 16.6328125 C28.60684061 21.54147427 19.07870932 20.85131063 10.59765625 19.4296875 C5.58883882 18.25332741 1.20991821 17.06926301 -3 14 C-3.84528937 8.50561909 -2.36301265 4.82448416 0 0 Z " fill="#4785B5" transform="translate(31,149)"/>
<path d="M0 0 C0.74822021 0.00837891 1.49644043 0.01675781 2.26733398 0.02539062 C7.63201671 0.14190019 12.5184495 0.80877622 17.6875 2.3125 C17.54654936 3.9379308 17.39957913 5.56284051 17.25 7.1875 C17.16878906 8.09242187 17.08757812 8.99734375 17.00390625 9.9296875 C16.6875 12.3125 16.6875 12.3125 15.6875 14.3125 C9.9375 12.5625 9.9375 12.5625 7.6875 10.3125 C12.4375 11.1875 12.4375 11.1875 14.6875 12.3125 C14.3575 10.0025 14.0275 7.6925 13.6875 5.3125 C10.79212723 5.0900103 7.89715101 4.88406846 5 4.6875 C4.18337891 4.62304688 3.36675781 4.55859375 2.52539062 4.4921875 C-2.04139201 4.19636352 -5.09628946 4.32214476 -9.3125 6.3125 C-10.6325 6.3125 -11.9525 6.3125 -13.3125 6.3125 C-13.6425 5.3225 -13.9725 4.3325 -14.3125 3.3125 C-9.3318803 0.33981517 -5.62347135 -0.13509841 0 0 Z " fill="#A7DCF4" transform="translate(51.3125,111.6875)"/>
<path d="M0 0 C6.97807327 4.27034228 12.35080516 9.22758509 14.83984375 17.16796875 C15.4224937 20.08632946 15.41703401 22.86130551 15.41015625 25.8359375 C15.41402344 27.50462891 15.41402344 27.50462891 15.41796875 29.20703125 C15.29914848 32.06221242 14.93868894 34.62351696 14.28515625 37.3984375 C11.7299279 33.56559497 12.26519669 30.67261979 12.47265625 26.2734375 C12.6135493 19.25902885 12.321303 13.76100117 7.28515625 8.3984375 C-0.6513555 1.68741653 -7.92411934 0.08491479 -18.08984375 0.2734375 C-19.01667969 0.28246094 -19.94351563 0.29148437 -20.8984375 0.30078125 C-23.17084452 0.32420813 -25.44270555 0.35701002 -27.71484375 0.3984375 C-21.55690311 -5.75950314 -7.21227051 -3.39542618 0 0 Z " fill="#5EA4D4" transform="translate(228.71484375,112.6015625)"/>
<path d="M0 0 C0.87214639 2.94266187 1.01053444 5.3241991 0.8125 8.375 C0.75178636 12.98164706 1.96541844 15.44520446 5 19 C5.99 19.66 6.98 20.32 8 21 C8 20.34 8 19.68 8 19 C17.24 19 26.48 19 36 19 C36 19.33 36 19.66 36 20 C27.42 20.33 18.84 20.66 10 21 C10.33 21.66 10.66 22.32 11 23 C13.82962943 23.91202932 16.630787 24.73518555 19.5 25.5 C22.369213 26.26481445 25.17037057 27.08797068 28 28 C28.33 28.66 28.66 29.32 29 30 C19.32050107 28.85013045 8.66545995 27.01183685 1.3125 20.0625 C-2.4774226 15.03162929 -2.37725411 8.05964421 -2 2 C-1.34 1.34 -0.68 0.68 0 0 Z " fill="#3E84CB" transform="translate(29,119)"/>
<path d="M0 0 C0.90105469 0.01804687 1.80210938 0.03609375 2.73046875 0.0546875 C3.41753906 0.07789062 4.10460938 0.10109375 4.8125 0.125 C4.8125 0.785 4.8125 1.445 4.8125 2.125 C0.3575 2.62 0.3575 2.62 -4.1875 3.125 C-4.5175 4.115 -4.8475 5.105 -5.1875 6.125 C-3.95773438 6.51171875 -2.72796875 6.8984375 -1.4609375 7.296875 C0.1720322 7.82242847 1.80483603 8.34849751 3.4375 8.875 C4.24574219 9.12765625 5.05398437 9.3803125 5.88671875 9.640625 C13.04339731 11.96800014 18.46889607 14.69003122 22.8125 21.125 C24.5010904 25.34647599 24.52900207 30.3785262 22.8125 34.5625 C22.4825 35.078125 22.1525 35.59375 21.8125 36.125 C20.803395 33.097685 20.8222496 31.43994626 21 28.3125 C21.0143373 23.38763723 20.36646873 20.76565089 16.8125 17.125 C11.20166678 13.64936758 4.90503699 12.27911563 -1.48828125 10.93359375 C-4.33223882 10.08164119 -6.03044041 9.15102326 -8.1875 7.125 C-8.625 4.5625 -8.625 4.5625 -8.1875 2.125 C-4.87379 -0.08414 -3.8428979 -0.09981553 0 0 Z " fill="#579CD2" transform="translate(51.1875,121.875)"/>
<path d="M0 0 C3.3 0 6.6 0 10 0 C10.125 6.625 10.125 6.625 9 10 C8.34 10 7.68 10 7 10 C7 10.66 7 11.32 7 12 C4.69 12.33 2.38 12.66 0 13 C-1.29676812 8.38926889 -0.71109139 4.66159911 0 0 Z " fill="#1A59B9" transform="translate(231,138)"/>
<path d="M0 0 C6.6 0 13.2 0 20 0 C18 5 18 5 16 8 C13 7 13 7 11 5 C9.68 6.32 8.36 7.64 7 9 C3.17475764 7.549046 1.80909034 5.61818068 0 2 C0 1.34 0 0.68 0 0 Z " fill="#1754B2" transform="translate(91,138)"/>
<path d="M0 0 C8.57142857 1 8.57142857 1 12 2 C12 2.66 12 3.32 12 4 C11.27554688 4.08636719 10.55109375 4.17273438 9.8046875 4.26171875 C3.29664712 5.20755395 -0.39019954 6.27199953 -5 11 C-5.66 11.66 -6.32 12.32 -7 13 C-7 11.68 -7 10.36 -7 9 C-9.82866925 7.68887926 -9.82866925 7.68887926 -11.82421875 8.77734375 C-12.43910156 9.16019531 -13.05398437 9.54304688 -13.6875 9.9375 C-14.780625 10.618125 -15.87375 11.29875 -17 12 C-16.06856932 8.8670059 -15.39960881 7.29970661 -12.75 5.3125 C-8.34717631 3.21115233 -4.9124333 2 0 2 C0 1.34 0 0.68 0 0 Z " fill="#7CBEEB" transform="translate(205,117)"/>
<path d="M0 0 C4.95 0 9.9 0 15 0 C15.92232422 1.64548828 15.92232422 1.64548828 16.86328125 3.32421875 C17.67964917 4.77866735 18.49605756 6.23309323 19.3125 7.6875 C19.71662109 8.40873047 20.12074219 9.12996094 20.53710938 9.87304688 C20.93349609 10.57880859 21.32988281 11.28457031 21.73828125 12.01171875 C22.12322754 12.70056152 22.50817383 13.3894043 22.90478516 14.09912109 C23.83291 15.70999493 24.83662172 17.27694894 25.85546875 18.83203125 C26.23316406 19.54746094 26.61085938 20.26289063 27 21 C26.67 21.99 26.34 22.98 26 24 C14 4.63106796 14 4.63106796 14 2 C10.37 2.33 6.74 2.66 3 3 C4.13888672 4.75376953 4.13888672 4.75376953 5.30078125 6.54296875 C6.30473194 8.09111701 7.30863572 9.6392957 8.3125 11.1875 C8.81201172 11.95642578 9.31152344 12.72535156 9.82617188 13.51757812 C10.79334212 15.00996665 11.75716786 16.50452912 12.71728516 18.00146484 C13.77472514 19.64901028 14.84467643 21.28851863 15.91796875 22.92578125 C16.27503906 23.61027344 16.63210937 24.29476562 17 25 C16.67 25.66 16.34 26.32 16 27 C13.98349629 24.0108298 11.98894445 21.0075739 10 18 C9.43007324 17.14075928 9.43007324 17.14075928 8.84863281 16.26416016 C7.62194072 14.40934259 6.40395304 12.54904547 5.1875 10.6875 C4.59207397 9.7900708 4.59207397 9.7900708 3.98461914 8.87451172 C2.00500446 5.82783122 0.89434771 3.57739084 0 0 Z " fill="#AEE4FB" transform="translate(73,112)"/>
<path d="M0 0 C1.32 0 2.64 0 4 0 C3.00931784 2.59719377 2.48310981 3.76257032 -0.05859375 5.01171875 C-0.84363281 5.23472656 -1.62867188 5.45773438 -2.4375 5.6875 C-3.21996094 5.91824219 -4.00242188 6.14898437 -4.80859375 6.38671875 C-5.89333984 6.69029297 -5.89333984 6.69029297 -7 7 C-7.99 7.33 -8.98 7.66 -10 8 C-12.35192393 8.12025295 -14.70753531 8.17532335 -17.0625 8.1875 C-18.31160156 8.20167969 -19.56070313 8.21585938 -20.84765625 8.23046875 C-24 8 -24 8 -26 6 C-22.1259107 4.32195755 -18.30557369 3.29012749 -14.1875 2.375 C-13.02605469 2.11460937 -11.86460937 1.85421875 -10.66796875 1.5859375 C-9.34732422 1.29589844 -9.34732422 1.29589844 -8 1 C-7.67 1.99 -7.34 2.98 -7 4 C-6.401875 3.67 -5.80375 3.34 -5.1875 3 C-3 2 -3 2 0 2 C0 1.34 0 0.68 0 0 Z " fill="#3287D4" transform="translate(228,157)"/>
<path d="M0 0 C4.05572903 -0.34435435 7.95608242 -0.53167044 12 0 C14.8125 2.8125 14.8125 2.8125 16 6 C15.67 6.99 15.34 7.98 15 9 C15 8.34 15 7.68 15 7 C13.9171875 7.7734375 13.9171875 7.7734375 12.8125 8.5625 C10 10 10 10 7.5 10.125 C3.78804958 8.45462231 1.91572217 5.52981999 0 2 C0 1.34 0 0.68 0 0 Z " fill="#9E9E9D" transform="translate(149,138)"/>
<path d="M0 0 C2.46235259 1.76981592 3.83710915 3.13229297 4.40625 6.1640625 C4.5500195 9.84216544 4.60942175 12.17962457 2.375 15.1875 C0 16 0 16 -3.125 15.625 C-6 14 -6 14 -7.375 10.375 C-7.58125 9.26125 -7.7875 8.1475 -8 7 C-5.36 6.01 -2.72 5.02 0 4 C0 2.68 0 1.36 0 0 Z " fill="#1965C5" transform="translate(67,140)"/>
<path d="M0 0 C1.98567708 0.5859375 3.97135417 1.171875 5.95703125 1.7578125 C8.31145413 2.26093748 8.31145413 2.26093748 11 0 C10.64715325 2.61106596 10.30406662 4.55190182 8.8125 6.75 C6.3002067 8.48261607 4.00353914 8.6322197 1 9 C-0.33737094 9.31674575 -1.67288808 9.64270064 -3 10 C-3 9.34 -3 8.68 -3 8 C-3.99 7.67 -4.98 7.34 -6 7 C-6 6.34 -6 5.68 -6 5 C-4.34467377 3.98133771 -2.67739862 2.98189187 -1 2 C-0.67 1.34 -0.34 0.68 0 0 Z " fill="#3686CE" transform="translate(60,153)"/>
<path d="M0 0 C2.13894482 0.47532107 4.27735244 0.95219046 6.4140625 1.4375 C8.0898718 1.80202649 9.77241528 2.13731827 11.4609375 2.4375 C15.04228194 3.10379664 17.56406176 3.70937451 20.625 5.75 C22 8 22 8 22.1875 11.0625 C21 14 21 14 17.9375 15.875 C13.90665912 17.30502861 10.23908672 17.22310983 6 17 C6 15.66666667 6 14.33333333 6 13 C9.3 12.67 12.6 12.34 16 12 C16.66 10.35 17.32 8.7 18 7 C16.17662109 6.49339844 16.17662109 6.49339844 14.31640625 5.9765625 C12.73165333 5.52645516 11.14702422 5.07591177 9.5625 4.625 C8.76005859 4.40328125 7.95761719 4.1815625 7.13085938 3.953125 C6.36708984 3.73398438 5.60332031 3.51484375 4.81640625 3.2890625 C4.10943604 3.09006348 3.40246582 2.89106445 2.67407227 2.68603516 C1 2 1 2 0 0 Z " fill="#7EC0F6" transform="translate(39,141)"/>
<path d="M0 0 C3.3 0 6.6 0 10 0 C11 8.875 11 8.875 11 10 C7.25 12 7.25 12 5 12 C4.54625 10.865625 4.0925 9.73125 3.625 8.5625 C2.42904194 4.95278308 2.42904194 4.95278308 0 4 C0 2.68 0 1.36 0 0 Z " fill="#1452B2" transform="translate(186,138)"/>
<path d="M0 0 C0.66 0.66 1.32 1.32 2 2 C1.8125 5.5 1.8125 5.5 1 9 C0.01 9.66 -0.98 10.32 -2 11 C-2 10.34 -2 9.68 -2 9 C-3.65 9 -5.3 9 -7 9 C-7.99 6.69 -8.98 4.38 -10 2 C-6.32653229 -0.44897847 -4.33643601 -0.31537716 0 0 Z " fill="#5FA9E6" transform="translate(41,121)"/>
<path d="M0 0 C0.66 0.33 1.32 0.66 2 1 C2 1.99 2 2.98 2 4 C2.99 4.33 3.98 4.66 5 5 C2.03 6.32 -0.94 7.64 -4 9 C-4.52837166 16.71422622 -4.09174913 20.1444885 1 26 C-3.29245529 24.46698025 -5.01922537 22.0322912 -7 18 C-7.72388007 13.53053864 -8.10402177 9.09397487 -5.94140625 4.9921875 C-4.19665655 2.8487858 -2.48002177 1.24001088 0 0 Z " fill="#91CEF0" transform="translate(36,114)"/>
<path d="M0 0 C3.37673393 0.86370218 6.06159641 2.14477263 9 4 C9.71929687 4.43570313 10.43859375 4.87140625 11.1796875 5.3203125 C16.1317389 8.63981948 19.3201454 12.2066553 21 18 C21.28331305 20.76702414 21.19944054 23.20783243 21 26 C20.67 26 20.34 26 20 26 C19.72285156 25.09636719 19.44570312 24.19273437 19.16015625 23.26171875 C18.61681641 21.49248047 18.61681641 21.49248047 18.0625 19.6875 C17.52302734 17.92986328 17.52302734 17.92986328 16.97265625 16.13671875 C16.02619078 11.8871056 16.02619078 11.8871056 13.25 8.97265625 C12.5075 8.65167969 11.765 8.33070312 11 8 C10.195625 7.58621094 9.39125 7.17242187 8.5625 6.74609375 C7.716875 6.31425781 6.87125 5.88242188 6 5.4375 C5.154375 5.00308594 4.30875 4.56867188 3.4375 4.12109375 C-3.79508929 0.7945663 -11.35083673 1.90726239 -19 3 C-13.85240062 -1.88827447 -6.59032041 -0.60844244 0 0 Z " fill="#C0F0FC" transform="translate(221,112)"/>
<path d="M0 0 C0.99 0.33 1.98 0.66 3 1 C2.39671875 1.44730469 1.7934375 1.89460938 1.171875 2.35546875 C-5.5854327 7.46704506 -11.33722044 12.25655082 -13 21 C-13.04065661 25.3858316 -12.84175857 29.68994295 -12 34 C-11.34 34.33 -10.68 34.66 -10 35 C-10.66 36.32 -11.32 37.64 -12 39 C-16.24722407 32.62916389 -15.63931815 25.36702663 -15 18 C-12.87498813 10.46315882 -8.25239389 5.51331744 -2 1 C-1.34 0.67 -0.68 0.34 0 0 Z " fill="#6DA9CF" transform="translate(198,113)"/>
<path d="M0 0 C0.33 0 0.66 0 1 0 C2.19552647 14.40149576 1.77266539 28.58041695 1 43 C0.34 43 -0.32 43 -1 43 C-1 42.34 -1 41.68 -1 41 C-1.66 41 -2.32 41 -3 41 C-3.25223681 35.4507902 -3.25223681 35.4507902 -2.01806641 33.24511719 C-0.58404905 30.08271344 -0.67107335 27.29031611 -0.5859375 23.828125 C-0.56657135 23.1457074 -0.5472052 22.46328979 -0.5272522 21.76019287 C-0.46768902 19.59025392 -0.42116554 17.42026123 -0.375 15.25 C-0.33679869 13.77471703 -0.2977457 12.29945585 -0.2578125 10.82421875 C-0.16200765 7.21634582 -0.07789084 3.60830917 0 0 Z " fill="#D9E2E8" transform="translate(180,121)"/>
<path d="M0 0 C5.9240703 5.72660129 5.9240703 5.72660129 6.13525391 9.26831055 C6.08288574 10.13238525 6.03051758 10.99645996 5.9765625 11.88671875 C5.925 12.82451172 5.8734375 13.76230469 5.8203125 14.72851562 C5.75585938 15.70498047 5.69140625 16.68144531 5.625 17.6875 C5.56828125 18.67556641 5.5115625 19.66363281 5.453125 20.68164062 C5.31166481 23.12182885 5.16025726 25.56098591 5 28 C7.31 28 9.62 28 12 28 C12 28.33 12 28.66 12 29 C5.9453125 29.9765625 5.9453125 29.9765625 4 30 C2 28 2 28 1.8046875 25.1796875 C1.82789062 24.08914062 1.85109375 22.99859375 1.875 21.875 C1.89304687 20.77929688 1.91109375 19.68359375 1.9296875 18.5546875 C1.95289062 17.71164063 1.97609375 16.86859375 2 16 C2.66 16 3.32 16 4 16 C3.65535188 10.5450522 3.20277208 6.59528168 0 2 C0 1.34 0 0.68 0 0 Z " fill="#5AA6E9" transform="translate(90,139)"/>
<path d="M0 0 C0.75 1.625 0.75 1.625 1 4 C-0.9375 7.25 -0.9375 7.25 -3 10 C-1.35 10 0.3 10 2 10 C6.07877462 17.0547046 6.07877462 17.0547046 5.75 21 C5.5025 21.66 5.255 22.32 5 23 C4.01 23.33 3.02 23.66 2 24 C1.34 23.34 0.68 22.68 0 22 C0.99 21.67 1.98 21.34 3 21 C2.41070989 17.96936513 1.74955438 14.9982175 1 12 C-2.3 12.66 -5.6 13.32 -9 14 C-8 11 -8 11 -5.625 8.6875 C-2.94325527 5.94190421 -1.54076562 3.48699587 0 0 Z " fill="#4F97CA" transform="translate(241,148)"/>
<path d="M0 0 C0.33 0.99 0.66 1.98 1 3 C2.98 3 4.96 3 7 3 C7.33 5.31 7.66 7.62 8 10 C4.7 10 1.4 10 -2 10 C-2.1953125 3.9453125 -2.1953125 3.9453125 -2 2 C-1.34 1.34 -0.68 0.68 0 0 Z " fill="#589DDD" transform="translate(233,128)"/>
<path d="M0 0 C1 1 1 1 1.0625 4.5625 C1.041875 5.696875 1.02125 6.83125 1 8 C-2.3 8 -5.6 8 -9 8 C-9 5.69 -9 3.38 -9 1 C-5.92954549 0.0902357 -3.20049657 -0.17299981 0 0 Z " fill="#368FD7" transform="translate(105,157)"/>
<path d="M0 0 C4.37769088 2.14904825 7.40738295 4.85181273 10 9 C9.75 11.3125 9.75 11.3125 9 13 C7 10 7 10 6.140625 7.95703125 C3.99602733 4.27743046 -0.07220485 3.18299075 -4 2 C-8.62296278 2.09064633 -11.97738128 3.79713737 -16 6 C-16 5.01 -16 4.02 -16 3 C-11.56109502 -1.1327736 -5.68162341 -0.75197957 0 0 Z " fill="#559CCE" transform="translate(219,123)"/>
<path d="M0 0 C2.37023314 1.18511657 3.78389306 2.26292881 5.5 4.25 C5.17 4.91 4.84 5.57 4.5 6.25 C2.16666667 6.58333333 -0.16666667 6.91666667 -2.5 7.25 C-2.83 7.91 -3.16 8.57 -3.5 9.25 C-6.53497942 4.87962963 -6.53497942 4.87962963 -6.375 2 C-4.8665748 -1.01685039 -2.98798928 -0.89639678 0 0 Z " fill="#7EBFE9" transform="translate(87.5,119.75)"/>
<path d="M0 0 C0 0.33 0 0.66 0 1 C-1.24716797 1.09087891 -1.24716797 1.09087891 -2.51953125 1.18359375 C-4.14955078 1.30927734 -4.14955078 1.30927734 -5.8125 1.4375 C-7.43091797 1.55931641 -7.43091797 1.55931641 -9.08203125 1.68359375 C-12.05989905 1.90212461 -12.05989905 1.90212461 -15 3 C-14.45711585 5.96649737 -14.45711585 5.96649737 -13 9 C-10.18247927 10.58266247 -10.18247927 10.58266247 -6.875 11.375 C-5.77929688 11.69210938 -4.68359375 12.00921875 -3.5546875 12.3359375 C-2.71164063 12.55507812 -1.86859375 12.77421875 -1 13 C-1 13.33 -1 13.66 -1 14 C-12.75771971 13.24228029 -12.75771971 13.24228029 -17 9 C-16.77120823 2.82262211 -16.77120823 2.82262211 -14.125 0 C-9.35363356 -1.52683726 -4.89607589 -0.71168879 0 0 Z " fill="#A0DBFB" transform="translate(58,121)"/>
<path d="M0 0 C0.99 0.33 1.98 0.66 3 1 C2.09507812 1.61875 2.09507812 1.61875 1.171875 2.25 C-4.14599085 6.09258694 -8.57271223 9.37816151 -10 16 C-10.42110539 21.66503345 -10.23193785 27.33040814 -10 33 C-13.2421146 29.7578854 -12.82174571 25.8934887 -13.0859375 21.4609375 C-12.90734472 14.26851918 -10.33984302 9.05814353 -5.375 3.9375 C-3.59349308 2.28435493 -2.17400874 1.08700437 0 0 Z " fill="#A7DAFA" transform="translate(197,116)"/>
<path d="M0 0 C0.99 0 1.98 0 3 0 C6.05578873 5.37818816 6.05578873 5.37818816 5.8125 8.08984375 C5 10 5 10 1.4375 11.8125 C-3.16437654 13.31078538 -6.29530051 13.13823375 -11 12 C-14.45165155 10.04623497 -17.34493528 7.95007191 -20 5 C-17.05120241 5.45366117 -15.7390119 6.20029319 -13.3125 8.0625 C-9.12158031 10.51379265 -5.75968873 10.74424224 -1 10 C1.21321638 9.04542479 1.21321638 9.04542479 3 8 C2.67 6.02 2.34 4.04 2 2 C1.01 1.67 0.02 1.34 -1 1 C-0.67 0.67 -0.34 0.34 0 0 Z " fill="#AEEAFE" transform="translate(239,160)"/>
<path d="M0 0 C3 3.75 3 3.75 3 6 C4.051875 5.938125 4.051875 5.938125 5.125 5.875 C8.38371628 6.01668332 10.9559947 6.86734686 14 8 C14 8.33 14 8.66 14 9 C11.36 9.33 8.72 9.66 6 10 C5.67 11.32 5.34 12.64 5 14 C0.17970402 10.26427061 0.17970402 10.26427061 -0.33203125 6.6640625 C-0.31436669 4.4241967 -0.21850902 2.22879201 0 0 Z " fill="#5A9FDB" transform="translate(31,124)"/>
<path d="M0 0 C2.875 0.625 2.875 0.625 6 2 C7.375 5.125 7.375 5.125 8 8 C6.02 8 4.04 8 2 8 C1.67 7.34 1.34 6.68 1 6 C0.67 6.99 0.34 7.98 0 9 C-3 8 -3 8 -3.9375 6.1875 C-4 4 -4 4 -2.0625 1.75 C-1.381875 1.1725 -0.70125 0.595 0 0 Z " fill="#5EABEB" transform="translate(232,123)"/>
<path d="M0 0 C0.33 0.66 0.66 1.32 1 2 C1.66 2 2.32 2 3 2 C3 3.65 3 5.3 3 7 C2.67 6.34 2.34 5.68 2 5 C-0.32156597 4.59270772 -2.6568787 4.25561323 -5 4 C-5 4.66 -5 5.32 -5 6 C-5.99 6.33 -6.98 6.66 -8 7 C-9.61907556 9.44580173 -9.61907556 9.44580173 -11.0625 12.375 C-12.61537494 15.37011248 -14.12656711 18.18985066 -16 21 C-16.66 21 -17.32 21 -18 21 C-18 20.34 -18 19.68 -18 19 C-17.34 19 -16.68 19 -16 19 C-15.773125 18.175 -15.54625 17.35 -15.3125 16.5 C-13.20802671 10.88807122 -9.95913898 4.56438114 -5 1 C-2.25 1.25 -2.25 1.25 0 2 C0 1.34 0 0.68 0 0 Z " fill="#90CCF3" transform="translate(118,117)"/>
<path d="M0 0 C1.98 0 3.96 0 6 0 C6 0.66 6 1.32 6 2 C7.98 1.67 9.96 1.34 12 1 C12 1.99 12 2.98 12 4 C9.33333333 5.33333333 6.66666667 6.66666667 4 8 C0 3.375 0 3.375 0 0 Z " fill="#0E4BB2" transform="translate(92,139)"/>
<path d="M0 0 C3.42727515 0.44222905 6.11792009 1.49786515 9.1875 3 C14.05989224 5.26393983 18.67452015 5.77764176 24 6 C24 6.33 24 6.66 24 7 C14.81253055 7.73304278 8.2301098 6.08587011 0 2 C-0.12375 3.11375 -0.2475 4.2275 -0.375 5.375 C-1 9 -1 9 -3 11 C-2.25 3.375 -2.25 3.375 0 0 Z " fill="#4F92CA" transform="translate(31,149)"/>
<path d="M0 0 C2.52259061 1.97420135 2.9929808 2.96745642 3.6875 6.1875 C3.790625 7.115625 3.89375 8.04375 4 9 C5.99983534 8.20882096 5.99983534 8.20882096 8 7 C8.33 6.01 8.66 5.02 9 4 C9.66 4 10.32 4 11 4 C10.67 6.64 10.34 9.28 10 12 C4.5 12 4.5 12 2 11 C0.51125573 8.4657254 -0.44971223 5.88620319 -1 3 C-0.67 2.01 -0.34 1.02 0 0 Z " fill="#1E60C1" transform="translate(187,141)"/>
<path d="M0 0 C2.55689522 1.19854463 4.11996267 2.8560301 6 4.9375 C5.67 5.9275 5.34 6.9175 5 7.9375 C3.02 7.2775 1.04 6.6175 -1 5.9375 C-1.33 6.5975 -1.66 7.2575 -2 7.9375 C-3.32 6.2875 -4.64 4.6375 -6 2.9375 C-2.61835749 -0.08182367 -2.61835749 -0.08182367 0 0 Z " fill="#1A62C1" transform="translate(221,146.0625)"/>
<path d="M0 0 C0.99 1.0209375 0.99 1.0209375 2 2.0625 C2.9952292 3.04651535 3.99588169 4.02505704 5 5 C5.60457031 5.58910156 6.20914063 6.17820313 6.83203125 6.78515625 C14.29840936 13.72137733 20.9550566 15.40306689 31 16 C31 16.33 31 16.66 31 17 C21.45301657 17.81961384 14.77078268 16.81218934 7 11 C3.38596158 7.68534938 0.95829191 4.87664106 0 0 Z " fill="#8CD0FA" transform="translate(187,150)"/>
<path d="M0 0 C0.66 0 1.32 0 2 0 C0.87548273 2.9719385 -0.22293791 5.33440687 -2 8 C-2.27543845 10.42045438 -2.27543845 10.42045438 -2.1953125 13.10546875 C-2.18886719 14.08837891 -2.18242188 15.07128906 -2.17578125 16.08398438 C-2.15902344 17.10814453 -2.14226562 18.13230469 -2.125 19.1875 C-2.11146484 20.74114258 -2.11146484 20.74114258 -2.09765625 22.32617188 C-2.0740786 24.88434685 -2.0411703 27.44205748 -2 30 C-5.18483906 30.85540752 -7.94382604 31.10600229 -11.25 31.0625 C-12.14203125 31.05347656 -13.0340625 31.04445312 -13.953125 31.03515625 C-14.62859375 31.02355469 -15.3040625 31.01195312 -16 31 C-16 30.67 -16 30.34 -16 30 C-12.04 29.67 -8.08 29.34 -4 29 C-4.13019531 27.576875 -4.26039062 26.15375 -4.39453125 24.6875 C-4.53530301 22.7917737 -4.6745449 20.89593336 -4.8125 19 C-4.94688477 17.59814453 -4.94688477 17.59814453 -5.08398438 16.16796875 C-5.48825618 10.08261422 -4.77146452 6.41532364 -1.2956543 1.36328125 C-0.86808838 0.91339844 -0.44052246 0.46351563 0 0 Z " fill="#6BA9DB" transform="translate(111,138)"/>
<path d="M0 0 C2 1 2 1 3 2 C5.34723966 2.397493 7.70328548 2.74368723 10.0625 3.0625 C11.35285156 3.23910156 12.64320313 3.41570312 13.97265625 3.59765625 C15.47119141 3.79681641 15.47119141 3.79681641 17 4 C17 4.33 17 4.66 17 5 C12.05 5.66 7.1 6.32 2 7 C1.67 6.01 1.34 5.02 1 4 C-0.6396875 4.061875 -0.6396875 4.061875 -2.3125 4.125 C-6 4 -6 4 -9 2 C-8.34 1.67 -7.68 1.34 -7 1 C-6.01 1.33 -5.02 1.66 -4 2 C-2.65863633 1.34964186 -1.32467746 0.6837045 0 0 Z " fill="#84C5EF" transform="translate(215,115)"/>
<path d="M0 0 C3.35867712 0.75970078 6.52123658 1.87093255 9.75 3.0625 C11.22726563 3.60583984 11.22726563 3.60583984 12.734375 4.16015625 C13.48203125 4.43730469 14.2296875 4.71445313 15 5 C11.30962722 6.37095624 9.29116165 5.60010967 5.75 4.0625 C4.85796875 3.68222656 3.9659375 3.30195313 3.046875 2.91015625 C2.37140625 2.60980469 1.6959375 2.30945313 1 2 C0.67 4.64 0.34 7.28 0 10 C2.97 10.99 5.94 11.98 9 13 C3.86057616 14.28485596 2.62164416 13.22194431 -2 11 C-1 3.57142857 -1 3.57142857 0 0 Z " fill="#A3DFFB" transform="translate(31,151)"/>
<path d="M0 0 C2.97 0 5.94 0 9 0 C9 1.98 9 3.96 9 6 C7.35 6 5.7 6 4 6 C3.67 6.66 3.34 7.32 3 8 C2.34 8 1.68 8 1 8 C0.67 5.36 0.34 2.72 0 0 Z " fill="#0F46A7" transform="translate(232,139)"/>
<path d="M0 0 C1.8125 3.0625 1.8125 3.0625 3 6 C2.401875 5.835 1.80375 5.67 1.1875 5.5 C-1.11344336 4.8885876 -1.11344336 4.8885876 -4 5 C-4.66 4.67 -5.32 4.34 -6 4 C-6.33 5.32 -6.66 6.64 -7 8 C-8.4606285 5.35261084 -9 4.10551666 -9 1 C-5.69940104 -1.0781549 -3.66050606 -1.50174608 0 0 Z " fill="#5DA4E2" transform="translate(94,126)"/>
<path d="M0 0 C3.2578125 -0.29296875 3.2578125 -0.29296875 7.125 -0.1875 C9.04699219 -0.14689453 9.04699219 -0.14689453 11.0078125 -0.10546875 C11.99523437 -0.07066406 12.98265625 -0.03585938 14 0 C11.94642857 6.58928571 11.94642857 6.58928571 9 9 C9.50603992 6.83125748 9.99983813 5.00032373 11 3 C7.7 2.67 4.4 2.34 1 2 C0.5978125 3.1446875 0.5978125 3.1446875 0.1875 4.3125 C-0.94424112 6.87380884 -1.91223401 8.19692938 -4 10 C-2.99806563 6.20696275 -2.18975773 3.28463659 0 0 Z " fill="#BBE9FB" transform="translate(114,112)"/>
<path d="M0 0 C2.31 0.66 4.62 1.32 7 2 C6.67 3.65 6.34 5.3 6 7 C4.5629191 7.05422947 3.12524538 7.09289723 1.6875 7.125 C0.88699219 7.14820313 0.08648437 7.17140625 -0.73828125 7.1953125 C-3 7 -3 7 -6 5 C-4.35 5 -2.7 5 -1 5 C-0.67 3.35 -0.34 1.7 0 0 Z " fill="#66B4E6" transform="translate(231,163)"/>
<path d="M0 0 C2.31 0.66 4.62 1.32 7 2 C6.25 6.75 6.25 6.75 4 9 C1.375 8.625 1.375 8.625 -1 8 C-0.67 5.36 -0.34 2.72 0 0 Z " fill="#63ACE1" transform="translate(32,153)"/>
<path d="M0 0 C1.65 1.32 3.3 2.64 5 4 C4.67 5.32 4.34 6.64 4 8 C0.7 8 -2.6 8 -6 8 C-5.1875 5.5625 -5.1875 5.5625 -4 3 C-3.01 2.67 -2.02 2.34 -1 2 C-0.67 1.34 -0.34 0.68 0 0 Z " fill="#4C91DA" transform="translate(108,130)"/>
<path d="M0 0 C2.97 0 5.94 0 9 0 C9.1875 2.875 9.1875 2.875 9 6 C8.01 6.66 7.02 7.32 6 8 C5.01 6.68 4.02 5.36 3 4 C2.01 4.33 1.02 4.66 0 5 C0 3.35 0 1.7 0 0 Z " fill="#999898" transform="translate(132,139)"/>
<path d="M0 0 C3.63 0 7.26 0 11 0 C11 0.33 11 0.66 11 1 C7.7 1 4.4 1 1 1 C1 3.64 1 6.28 1 9 C0.01 9 -0.98 9 -2 9 C-1.34 6.03 -0.68 3.06 0 0 Z M-3 7 C-2.67 7.99 -2.34 8.98 -2 10 C-4.25 11.625 -4.25 11.625 -7 13 C-9.3125 12.1875 -9.3125 12.1875 -11 11 C-5 7 -5 7 -3 7 Z " fill="#BCBCBC" transform="translate(167,138)"/>
<path d="M0 0 C0.33 0 0.66 0 1 0 C1 3.96 1 7.92 1 12 C-0.32 12 -1.64 12 -3 12 C-3.66 11.34 -4.32 10.68 -5 10 C-8.59679066 10.32326553 -8.59679066 10.32326553 -12 11 C-12 10.01 -12 9.02 -12 8 C-9.3125 6.8125 -9.3125 6.8125 -6 6 C-3.125 7.375 -3.125 7.375 -1 9 C-0.67 6.03 -0.34 3.06 0 0 Z " fill="#418FC5" transform="translate(228,135)"/>
<path d="M0 0 C3.26569705 3.03243297 5.62030537 6.2385472 8 10 C8.5775 10.763125 9.155 11.52625 9.75 12.3125 C11.55283263 16.18859016 11.24742436 19.7937858 11 24 C10.67 24 10.34 24 10 24 C9.86464844 23.40574219 9.72929688 22.81148437 9.58984375 22.19921875 C7.91027481 15.73237546 5.2327797 10.82563538 1.42578125 5.34765625 C0 3 0 3 0 0 Z " fill="#4A8AC7" transform="translate(83,131)"/>
<path d="M0 0 C0 0.33 0 0.66 0 1 C-0.83402344 1.03738281 -1.66804688 1.07476562 -2.52734375 1.11328125 C-15.20129905 1.84273596 -15.20129905 1.84273596 -26 8 C-26.33 7.34 -26.66 6.68 -27 6 C-17.97268763 -1.66939038 -11.10382998 -1.65791188 0 0 Z " fill="#528FB4" transform="translate(56,111)"/>
<path d="M0 0 C0.33 0.99 0.66 1.98 1 3 C-4.0685016 8.04154149 -7.8145157 11.08755755 -15 12 C-17.43138314 11.86159109 -19.6044606 11.49907071 -22 11 C-22 10.67 -22 10.34 -22 10 C-21.13117187 9.90203125 -20.26234375 9.8040625 -19.3671875 9.703125 C-11.51887238 8.68477539 -6.33131066 7.9975728 -1.125 1.75 C-0.75375 1.1725 -0.3825 0.595 0 0 Z " fill="#498AC0" transform="translate(72,157)"/>
<path d="M0 0 C0.66 0.33 1.32 0.66 2 1 C1.125 5.75 1.125 5.75 0 8 C-4.75 7.25 -4.75 7.25 -7 5 C-9.60280568 5.32041397 -9.60280568 5.32041397 -12 6 C-12.33 6.99 -12.66 7.98 -13 9 C-13.66 9 -14.32 9 -15 9 C-14.8125 7.1875 -14.8125 7.1875 -14 5 C-10.0505618 1.90449438 -10.0505618 1.90449438 -6.9375 2.1875 C-4.90492826 3.03986879 -2.9429341 3.95914244 -1 5 C-0.67 3.35 -0.34 1.7 0 0 Z " fill="#98D3FA" transform="translate(229,142)"/>
<path d="M0 0 C0.8125 2.375 0.8125 2.375 1 5 C-0.4375 6.8125 -0.4375 6.8125 -2 8 C-2 6.68 -2 5.36 -2 4 C-4.82866925 2.68887926 -4.82866925 2.68887926 -6.82421875 3.77734375 C-7.43910156 4.16019531 -8.05398437 4.54304688 -8.6875 4.9375 C-9.780625 5.618125 -10.87375 6.29875 -12 7 C-10.92598892 4.08482708 -10.22189824 2.22189824 -8 0 C-2.51428571 -1.25714286 -2.51428571 -1.25714286 0 0 Z " fill="#6CB1E9" transform="translate(200,122)"/>
<path d="M0 0 C0.33 0 0.66 0 1 0 C0.71594864 8.94761773 -2.53209699 14.84193666 -9 21 C-7.35 21 -5.7 21 -4 21 C-4 21.33 -4 21.66 -4 22 C-6.31 22 -8.62 22 -11 22 C-10.42122058 18.44911002 -9.15090275 16.87958711 -6.625 14.375 C-2.63279402 10.03029945 -1.22510402 5.6938168 0 0 Z " fill="#9BDCFC" transform="translate(241,141)"/>
<path d="M0 0 C1.65 0 3.3 0 5 0 C5 0.66 5 1.32 5 2 C5.66 2.33 6.32 2.66 7 3 C7 4.32 7 5.64 7 7 C7.66 7.33 8.32 7.66 9 8 C7.02 8.33 5.04 8.66 3 9 C2.01 6.03 1.02 3.06 0 0 Z " fill="#1051BE" transform="translate(188,141)"/>
<path d="M0 0 C0.33 0 0.66 0 1 0 C2.20952381 7.25714286 2.20952381 7.25714286 1.3125 10.4375 C-0.39766619 12.47341213 -1.37782994 12.66702602 -4 13 C-6.359375 12.22265625 -6.359375 12.22265625 -8.75 11.0625 C-9.54921875 10.68222656 -10.3484375 10.30195312 -11.171875 9.91015625 C-11.77515625 9.60980469 -12.3784375 9.30945313 -13 9 C-13 8.67 -13 8.34 -13 8 C-8.72213252 8.49360009 -5.90432869 9.04783565 -2 11 C-1.34 7.37 -0.68 3.74 0 0 Z " fill="#5099CD" transform="translate(69,115)"/>
<path d="M0 0 C0.66 0 1.32 0 2 0 C2 0.99 2 1.98 2 3 C2.66 3.33 3.32 3.66 4 4 C3.34 4 2.68 4 2 4 C2.02320313 5.05960938 2.04640625 6.11921875 2.0703125 7.2109375 C2.08906944 8.5989513 2.10726972 9.9869727 2.125 11.375 C2.14175781 12.07367188 2.15851563 12.77234375 2.17578125 13.4921875 C2.19344267 15.32897486 2.10303261 17.16601963 2 19 C1.34 19.66 0.68 20.32 0 21 C0 14.07 0 7.14 0 0 Z " fill="#E2E1E1" transform="translate(143,137)"/>
<path d="M0 0 C0.33 0 0.66 0 1 0 C1 2.97 1 5.94 1 9 C-2.3 9 -5.6 9 -9 9 C-9 7.02 -9 5.04 -9 3 C-8.67 4.32 -8.34 5.64 -8 7 C-7.21625 6.67 -6.4325 6.34 -5.625 6 C-3 5 -3 5 -1 5 C-0.67 3.35 -0.34 1.7 0 0 Z " fill="#2E7DCF" transform="translate(105,149)"/>
<path d="M0 0 C0.66 0.66 1.32 1.32 2 2 C0.02 5.63 -1.96 9.26 -4 13 C-4.66 13 -5.32 13 -6 13 C-7.32 10.03 -8.64 7.06 -10 4 C-9.34 3.67 -8.68 3.34 -8 3 C-6.68 4.65 -5.36 6.3 -4 8 C-2.68 5.36 -1.36 2.72 0 0 Z " fill="#559CD1" transform="translate(106,123)"/>
<path d="M0 0 C1.21236328 0.02707031 1.21236328 0.02707031 2.44921875 0.0546875 C3.37154297 0.08949219 3.37154297 0.08949219 4.3125 0.125 C4.6425 1.115 4.9725 2.105 5.3125 3.125 C4.405 3.269375 3.4975 3.41375 2.5625 3.5625 C0.09773044 3.98909473 -2.27597107 4.47574221 -4.6875 5.125 C-4.6875 4.465 -4.6875 3.805 -4.6875 3.125 C-5.6775 2.795 -6.6675 2.465 -7.6875 2.125 C-4.48369983 -0.01086678 -3.66810033 -0.10632175 0 0 Z " fill="#378DD8" transform="translate(61.6875,157.875)"/>
<path d="M0 0 C3.96 0 7.92 0 12 0 C12.66 1.65 13.32 3.3 14 5 C13.38511719 4.84402344 12.77023438 4.68804687 12.13671875 4.52734375 C11.32847656 4.33269531 10.52023438 4.13804688 9.6875 3.9375 C8.88699219 3.74027344 8.08648437 3.54304688 7.26171875 3.33984375 C4.84042821 2.80114446 4.84042821 2.80114446 2 4 C1.34 2.68 0.68 1.36 0 0 Z " fill="#9ECFEE" transform="translate(75,114)"/>
<path d="M0 0 C13.6332574 0.77904328 13.6332574 0.77904328 20 3 C19.67 3.66 19.34 4.32 19 5 C18.31035156 4.86722656 17.62070313 4.73445313 16.91015625 4.59765625 C10.94679588 3.47696987 5.03851471 2.59395227 -1 2 C-0.67 1.34 -0.34 0.68 0 0 Z " fill="#5594C5" transform="translate(48,109)"/>
<path d="M0 0 C0.66 0 1.32 0 2 0 C2.226875 0.804375 2.45375 1.60875 2.6875 2.4375 C3.120625 3.283125 3.55375 4.12875 4 5 C6.54775306 5.89386164 6.54775306 5.89386164 9 6 C8.67 7.32 8.34 8.64 8 10 C4.625 9.4375 4.625 9.4375 1 8 C-0.4375 4.375 -0.4375 4.375 -1 1 C-0.67 0.67 -0.34 0.34 0 0 Z " fill="#2574C7" transform="translate(60,146)"/>
<path d="M0 0 C2.88483351 0.65939052 4.59844506 1.47497526 6.41015625 3.84375 C10.09157141 9.76835981 11.11247154 13.02676453 11 20 C10.67 20 10.34 20 10 20 C9.72285156 19.09636719 9.44570312 18.19273437 9.16015625 17.26171875 C8.79792969 16.08222656 8.43570313 14.90273437 8.0625 13.6875 C7.52302734 11.92986328 7.52302734 11.92986328 6.97265625 10.13671875 C6.00333317 5.75724553 6.00333317 5.75724553 3 2.9375 C2.34 2.628125 1.68 2.31875 1 2 C0.67 1.34 0.34 0.68 0 0 Z " fill="#AEE3FC" transform="translate(231,118)"/>
<path d="M0 0 C0.99 0.99 1.98 1.98 3 3 C2.67 3.99 2.34 4.98 2 6 C2 5.34 2 4.68 2 4 C0.9171875 4.7734375 0.9171875 4.7734375 -0.1875 5.5625 C-3 7 -3 7 -5.625 7 C-8.75743861 5.68107848 -9.54047893 3.99585903 -11 1 C-8.53199953 2.15173355 -6.95216435 3.04783565 -5 5 C-3.35 3.35 -1.7 1.7 0 0 Z " fill="#A8A8A8" transform="translate(162,141)"/>
<path d="M0 0 C0.33 1.32 0.66 2.64 1 4 C-1.97 4 -4.94 4 -8 4 C-7.67 2.68 -7.34 1.36 -7 0 C-4.3333581 -1.33332095 -2.83319697 -0.67102033 0 0 Z " fill="#4D91E0" transform="translate(99,134)"/>
<path d="M0 0 C0.33 0 0.66 0 1 0 C1 2.31 1 4.62 1 7 C-2.3 7 -5.6 7 -9 7 C-9 5.68 -9 4.36 -9 3 C-6.36 3.66 -3.72 4.32 -1 5 C-0.67 3.35 -0.34 1.7 0 0 Z " fill="#52A0D7" transform="translate(105,158)"/>
<path d="M0 0 C0.33 0 0.66 0 1 0 C1.02717692 2.06242617 1.0464758 4.12495703 1.0625 6.1875 C1.07410156 7.33605469 1.08570313 8.48460937 1.09765625 9.66796875 C1.01192832 12.59300586 0.67849023 15.16316291 0 18 C-2.70454841 13.94317738 -2.42076588 10.75789116 -2 6 C-1 2.4375 -1 2.4375 0 0 Z " fill="#70B0E6" transform="translate(243,132)"/>
<path d="M0 0 C2.82928932 2.55071314 4.67893264 5.46621272 6.6875 8.6875 C7.31011719 9.68136719 7.93273437 10.67523438 8.57421875 11.69921875 C9.04472656 12.45847656 9.51523438 13.21773437 10 14 C9.34 14.66 8.68 15.32 8 16 C6.65543396 14.09119643 5.32469479 12.17264729 4 10.25 C3.2575 9.18265625 2.515 8.1153125 1.75 7.015625 C0 4 0 4 0 0 Z " fill="#579ACD" transform="translate(74,116)"/>
<path d="M0 0 C4.20969919 1.50346399 5.91860139 4.14555814 8 8 C7.75 10.375 7.75 10.375 7 12 C5.76302083 10.50260417 4.52604167 9.00520833 3.2890625 7.5078125 C2.24749008 6.28948839 1.13339903 5.13339903 0 4 C0 2.68 0 1.36 0 0 Z " fill="#F5F5F5" transform="translate(150,122)"/>
<path d="M0 0 C0.66 0 1.32 0 2 0 C2.33 3.3 2.66 6.6 3 10 C5.31 10.33 7.62 10.66 10 11 C10 11.33 10 11.66 10 12 C3.9453125 12.9765625 3.9453125 12.9765625 2 13 C0 11 0 11 -0.1953125 8.3984375 C-0.17210938 7.40070313 -0.14890625 6.40296875 -0.125 5.375 C-0.10695313 4.37210938 -0.08890625 3.36921875 -0.0703125 2.3359375 C-0.04710938 1.56507813 -0.02390625 0.79421875 0 0 Z " fill="#3587BF" transform="translate(92,156)"/>
<path d="M0 0 C2 1.5 2 1.5 4 4 C4.35800135 6.75871627 4.18660165 9.20097524 4 12 C1.4375 9.9375 1.4375 9.9375 -1 7 C-0.8125 3.1875 -0.8125 3.1875 0 0 Z " fill="#1E5CB9" transform="translate(67,140)"/>
<path d="M0 0 C2.62386487 3.06117568 3 3.73173127 3 8 C1 9.75 1 9.75 -1 11 C-1.12375 9.88625 -1.2475 8.7725 -1.375 7.625 C-1.6465813 3.96896323 -1.6465813 3.96896323 -4 2 C-2.68 1.34 -1.36 0.68 0 0 Z " fill="#337CAD" transform="translate(71,111)"/>
<path d="M0 0 C0 1.32 0 2.64 0 4 C-2.31 4 -4.62 4 -7 4 C-7.33 2.68 -7.66 1.36 -8 0 C-4.94736336 -0.98120464 -3.05263664 -0.98120464 0 0 Z " fill="#4D95E4" transform="translate(240,134)"/>
<path d="M0 0 C0.33 0.66 0.66 1.32 1 2 C-0.36078271 4.62710761 -1.76905403 7.10906702 -3.3125 9.625 C-3.72951172 10.33140625 -4.14652344 11.0378125 -4.57617188 11.765625 C-5.65567248 13.54929745 -6.82186531 15.27988151 -8 17 C-8.66 17 -9.32 17 -10 17 C-8.57394582 13.07297642 -6.70550338 9.75380481 -4.4375 6.25 C-3.81746094 5.28578125 -3.19742188 4.3215625 -2.55859375 3.328125 C-1 1 -1 1 0 0 Z " fill="#A9E2FB" transform="translate(122,121)"/>
<path d="M0 0 C2.125 0.9375 2.125 0.9375 4 2 C3.525625 2.391875 3.05125 2.78375 2.5625 3.1875 C0.64051301 5.41700491 0.51273969 7.14330744 0 10 C-0.66 10.66 -1.32 11.32 -2 12 C-2 8.37 -2 4.74 -2 1 C-1.34 0.67 -0.68 0.34 0 0 Z " fill="#F5F8FA" transform="translate(132,111)"/>
<path d="M0 0 C3.3 0 6.6 0 10 0 C10.66 1.65 11.32 3.3 12 5 C10.18504338 4.55149342 8.37306866 4.09090429 6.5625 3.625 C5.55316406 3.36976563 4.54382812 3.11453125 3.50390625 2.8515625 C1 2 1 2 0 0 Z " fill="#1450AE" transform="translate(38,139)"/>
<path d="M0 0 C0.99386719 0.10183594 1.98773438 0.20367187 3.01171875 0.30859375 C3.77097656 0.39238281 4.53023437 0.47617188 5.3125 0.5625 C5.3125 0.8925 5.3125 1.2225 5.3125 1.5625 C4.06533203 1.65337891 4.06533203 1.65337891 2.79296875 1.74609375 C1.16294922 1.87177734 1.16294922 1.87177734 -0.5 2 C-2.11841797 2.12181641 -2.11841797 2.12181641 -3.76953125 2.24609375 C-6.74739905 2.46462461 -6.74739905 2.46462461 -9.6875 3.5625 C-10.0175 4.5525 -10.3475 5.5425 -10.6875 6.5625 C-11.0175 5.9025 -11.3475 5.2425 -11.6875 4.5625 C-8.32828013 -0.39634838 -5.77958556 -0.61195612 0 0 Z " fill="#AFE7FD" transform="translate(52.6875,120.4375)"/>
<path d="M0 0 C0.66 0.66 1.32 1.32 2 2 C1.01 3.485 1.01 3.485 0 5 C-3 5.375 -3 5.375 -6 5 C-6.66 4.01 -7.32 3.02 -8 2 C-6.71254964 1.61077082 -5.41980403 1.23901964 -4.125 0.875 C-3.04605469 0.56175781 -3.04605469 0.56175781 -1.9453125 0.2421875 C-1.30335938 0.16226563 -0.66140625 0.08234375 0 0 Z " fill="#55A9DF" transform="translate(230,163)"/>
<path d="M0 0 C0.33 1.32 0.66 2.64 1 4 C-2.50871784 5.91384609 -3.81367786 6.04276246 -7.8125 5.125 C-8.864375 4.75375 -9.91625 4.3825 -11 4 C-10.67 3.34 -10.34 2.68 -10 2 C-6.7 2 -3.4 2 0 2 C0 1.34 0 0.68 0 0 Z " fill="#337AC4" transform="translate(219,154)"/>
<path d="M0 0 C0.66 0 1.32 0 2 0 C2.33 2.31 2.66 4.62 3 7 C2.34 6.67 1.68 6.34 1 6 C-1.00800456 6.28112064 -3.01014051 6.61067967 -5 7 C-5.33 6.34 -5.66 5.68 -6 5 C-5.195625 4.54625 -4.39125 4.0925 -3.5625 3.625 C-0.91143428 2.25274335 -0.91143428 2.25274335 0 0 Z " fill="#1151B6" transform="translate(63,140)"/>
<path d="M0 0 C3.63 0.66 7.26 1.32 11 2 C11 2.33 11 2.66 11 3 C1.58997722 4.14806378 1.58997722 4.14806378 -3 4 C-2.01 2.68 -1.02 1.36 0 0 Z " fill="#5698D4" transform="translate(46,133)"/>
<path d="M0 0 C1.65 0.33 3.3 0.66 5 1 C2.375 5.875 2.375 5.875 -1 7 C-1.33 5.35 -1.66 3.7 -2 2 C-1.34 2 -0.68 2 0 2 C0 1.34 0 0.68 0 0 Z " fill="#6EB4EE" transform="translate(228,121)"/>
<path d="M0 0 C0 0.66 0 1.32 0 2 C-2.66666667 2.66666667 -5.33333333 3.33333333 -8 4 C-8.74765625 4.18691406 -9.4953125 4.37382813 -10.265625 4.56640625 C-10.83796875 4.70949219 -11.4103125 4.85257812 -12 5 C-5.79166667 -1.37171053 -5.79166667 -1.37171053 0 0 Z " fill="#89C6ED" transform="translate(205,117)"/>
<path d="M0 0 C0.86625 0.4640625 0.86625 0.4640625 1.75 0.9375 C3.84294184 1.92583364 5.74535275 2.5168613 8 3 C8.33 4.65 8.66 6.3 9 8 C9.66 8 10.32 8 11 8 C10.67 8.66 10.34 9.32 10 10 C8.70450101 8.90033225 7.41373929 7.79508199 6.125 6.6875 C5.40570313 6.07261719 4.68640625 5.45773438 3.9453125 4.82421875 C2 3 2 3 0 0 Z " fill="#337DCD" transform="translate(190,153)"/>
<path d="M0 0 C0.99 0 1.98 0 3 0 C3 1.65 3 3.3 3 5 C-0.3146667 7.02907167 -2.4315979 7.12742133 -6.25 6.625 C-7.14203125 6.51414063 -8.0340625 6.40328125 -8.953125 6.2890625 C-9.96632812 6.14597656 -9.96632812 6.14597656 -11 6 C-11 5.67 -11 5.34 -11 5 C-7.7 4.67 -4.4 4.34 -1 4 C-0.67 2.68 -0.34 1.36 0 0 Z " fill="#67AEE1" transform="translate(56,149)"/>
<path d="M0 0 C2.23110851 1.03587181 4.00637397 2.00552411 5.875 3.625 C8.67902774 5.43937089 10.72814677 5.2230809 14 5 C14 5.66 14 6.32 14 7 C6.01007787 7.7833257 6.01007787 7.7833257 1.9375 4.625 C0 2 0 2 0 0 Z " fill="#5299D1" transform="translate(200,147)"/>
<path d="M0 0 C3.84018663 1.50864475 5.80643252 3.52054814 8 7 C8.60657842 9.70203116 8.81162289 12.22143762 9 15 C6.87181172 11.80771757 5.05756608 8.51993796 3.21875 5.15625 C2.22177209 3.392366 1.12390141 1.68585212 0 0 Z " fill="#5395CA" transform="translate(234,118)"/>
<path d="M0 0 C2.625 0.375 2.625 0.375 5 1 C5 1.99 5 2.98 5 4 C3.865625 4.12375 2.73125 4.2475 1.5625 4.375 C-0.2009375 4.684375 -0.2009375 4.684375 -2 5 C-2.33 5.66 -2.66 6.32 -3 7 C-2.25 2.25 -2.25 2.25 0 0 Z " fill="#70B2E7" transform="translate(87,122)"/>
<path d="M0 0 C1.65 1.65 3.3 3.3 5 5 C4.34 6.32 3.68 7.64 3 9 C1.35 6.69 -0.3 4.38 -2 2 C-1.34 1.34 -0.68 0.68 0 0 Z " fill="#E6E6E5" transform="translate(149,140)"/>
<path d="M0 0 C0.33 0 0.66 0 1 0 C1.16820551 1.93736701 1.33451095 3.87489906 1.5 5.8125 C1.5928125 6.89144531 1.685625 7.97039062 1.78125 9.08203125 C2 12 2 12 2 15 C1.01 15 0.02 15 -1 15 C-1.09038099 9.84828377 -0.84681133 5.08086796 0 0 Z " fill="#E2F3F6" transform="translate(129,113)"/>
<path d="M0 0 C0.66 0 1.32 0 2 0 C2 0.66 2 1.32 2 2 C3.65 1.34 5.3 0.68 7 0 C7.33 0.99 7.66 1.98 8 3 C7.01 3 6.02 3 5 3 C4.67 3.66 4.34 4.32 4 5 C3.01 5 2.02 5 1 5 C0.67 3.35 0.34 1.7 0 0 Z " fill="#267DD8" transform="translate(220,156)"/>
<path d="M0 0 C2.66666667 2.66666667 5.33333333 5.33333333 8 8 C7.01 8.495 7.01 8.495 6 9 C5.01 8.34 4.02 7.68 3 7 C3 6.34 3 5.68 3 5 C1.68 5 0.36 5 -1 5 C-0.67 3.35 -0.34 1.7 0 0 Z " fill="#3370C8" transform="translate(198,148)"/>
<path d="M0 0 C3.3 0 6.6 0 10 0 C10 0.66 10 1.32 10 2 C9.06027344 2.09087891 9.06027344 2.09087891 8.1015625 2.18359375 C7.28429688 2.26738281 6.46703125 2.35117188 5.625 2.4375 C4.81289063 2.51871094 4.00078125 2.59992188 3.1640625 2.68359375 C0.95727195 2.89090114 0.95727195 2.89090114 -1 4 C-0.67 2.68 -0.34 1.36 0 0 Z " fill="#64B2E6" transform="translate(46,122)"/>
<path d="M0 0 C0.99 0.33 1.98 0.66 3 1 C1.54634731 2.17249353 0.08692581 3.33783816 -1.375 4.5 C-2.18710938 5.1496875 -2.99921875 5.799375 -3.8359375 6.46875 C-6 8 -6 8 -8 8 C-6.49860488 3.79609368 -3.82724957 2.10889262 0 0 Z " fill="#4E93C0" transform="translate(198,113)"/>
<path d="M0 0 C0.66 0 1.32 0 2 0 C3.98 3.63 5.96 7.26 8 11 C7.01 11 6.02 11 5 11 C4.16151196 9.54462432 3.32936066 8.08559627 2.5 6.625 C1.80390625 5.40683594 1.80390625 5.40683594 1.09375 4.1640625 C0 2 0 2 0 0 Z " fill="#468ABD" transform="translate(90,115)"/>
<path d="M0 0 C0.99 0.33 1.98 0.66 3 1 C4.1875 4.0625 4.1875 4.0625 5 7 C3.02 7 1.04 7 -1 7 C-0.34 6.67 0.32 6.34 1 6 C1 4.68 1 3.36 1 2 C0.34 1.67 -0.32 1.34 -1 1 C-0.67 0.67 -0.34 0.34 0 0 Z " fill="#67ABE3" transform="translate(235,124)"/>
<path d="M0 0 C0.33 0 0.66 0 1 0 C1 2.31 1 4.62 1 7 C1.66 7 2.32 7 3 7 C3 8.98 3 10.96 3 13 C2.01 12.67 1.02 12.34 0 12 C0 8.04 0 4.08 0 0 Z " fill="#FAFAF8" transform="translate(164,122)"/>
<path d="M0 0 C2.3125 0.125 2.3125 0.125 5 1 C6.8125 4.0625 6.8125 4.0625 8 7 C6.68 6.67 5.36 6.34 4 6 C3.896875 5.360625 3.79375 4.72125 3.6875 4.0625 C3.460625 3.381875 3.23375 2.70125 3 2 C2.01 1.67 1.02 1.34 0 1 C0 0.67 0 0.34 0 0 Z " fill="#65AAE5" transform="translate(89,125)"/>
<path d="M0 0 C0.66 0.66 1.32 1.32 2 2 C1.34 2.66 0.68 3.32 0 4 C-0.66 3.34 -1.32 2.68 -2 2 C-3.9931567 1.97624074 -3.9931567 1.97624074 -6.125 2.375 C-7.40375 2.58125 -8.6825 2.7875 -10 3 C-7.30045271 -0.81112559 -4.38454651 -0.39859514 0 0 Z " fill="#6BB5E8" transform="translate(41,121)"/>
<path d="M0 0 C2.31 0.33 4.62 0.66 7 1 C6.67 1.99 6.34 2.98 6 4 C3.36 3.67 0.72 3.34 -2 3 C-1.34 2.01 -0.68 1.02 0 0 Z " fill="#94CDF0" transform="translate(115,115)"/>
<path d="M0 0 C2.97 0 5.94 0 9 0 C6.81036236 2.18963764 5.96189868 2.477312 3 3 C1.68 3 0.36 3 -1 3 C-0.67 2.01 -0.34 1.02 0 0 Z " fill="#4B96E2" transform="translate(37,133)"/>
<path d="M0 0 C0.556875 0.226875 1.11375 0.45375 1.6875 0.6875 C-1.22653262 2.63018841 -4.17058576 4.15145304 -7.3125 5.6875 C-7.3125 4.6975 -7.3125 3.7075 -7.3125 2.6875 C-3.28618421 -0.44407895 -3.28618421 -0.44407895 0 0 Z " fill="#5EA0D5" transform="translate(210.3125,123.3125)"/>
<path d="M0 0 C0.33 0.66 0.66 1.32 1 2 C2.89533342 2.46523063 2.89533342 2.46523063 5.0625 2.625 C6.361875 2.74875 7.66125 2.8725 9 3 C9 3.33 9 3.66 9 4 C6.03 4 3.06 4 0 4 C-0.33 4.66 -0.66 5.32 -1 6 C-1 2 -1 2 0 0 Z " fill="#F2F3F4" transform="translate(131,162)"/>
<path d="M0 0 C0.75 1.625 0.75 1.625 1 4 C-0.8125 7.25 -0.8125 7.25 -3 10 C-3.66 10 -4.32 10 -5 10 C-3.33333333 6.66666667 -1.66666667 3.33333333 0 0 Z " fill="#498CC9" transform="translate(241,148)"/>
<path d="M0 0 C0.66 0.33 1.32 0.66 2 1 C1.125 5.75 1.125 5.75 0 8 C-1.65 7.67 -3.3 7.34 -5 7 C-4.34 6.34 -3.68 5.68 -3 5 C-2.34 5 -1.68 5 -1 5 C-0.67 3.35 -0.34 1.7 0 0 Z " fill="#6AABF0" transform="translate(229,142)"/>
<path d="M0 0 C0 2.31 0 4.62 0 7 C-0.33 6.34 -0.66 5.68 -1 5 C-3.02463255 4.34786708 -3.02463255 4.34786708 -5 4 C-4.67 3.01 -4.34 2.02 -4 1 C-1 0 -1 0 0 0 Z " fill="#B5B5B4" transform="translate(141,145)"/>
<path d="M0 0 C-0.33 1.32 -0.66 2.64 -1 4 C-1.66 4 -2.32 4 -3 4 C-3.33 4.66 -3.66 5.32 -4 6 C-4.66 6 -5.32 6 -6 6 C-6 4.68 -6 3.36 -6 2 C-2.25 0 -2.25 0 0 0 Z " fill="#0C47B7" transform="translate(239,141)"/>
<path d="M0 0 C2.97 0.495 2.97 0.495 6 1 C6.66 2.98 7.32 4.96 8 7 C7.01 7.33 6.02 7.66 5 8 C5 6.02 5 4.04 5 2 C3.35 1.67 1.7 1.34 0 1 C0 0.67 0 0.34 0 0 Z " fill="#8FC9E8" transform="translate(235,161)"/>
<path d="M0 0 C0.99 0 1.98 0 3 0 C3 2.31 3 4.62 3 7 C1.35 5.35 -0.3 3.7 -2 2 C-1.34 1.34 -0.68 0.68 0 0 Z " fill="#2767B6" transform="translate(217,147)"/>
<path d="M0 0 C3.875 1.75 3.875 1.75 5 4 C4.01 5.485 4.01 5.485 3 7 C0 3.375 0 3.375 0 0 Z " fill="#ECECEC" transform="translate(153,147)"/>
<path d="M0 0 C4 3 4 3 4.390625 5.26171875 C4.34421875 6.06222656 4.2978125 6.86273438 4.25 7.6875 C4.21390625 8.49574219 4.1778125 9.30398437 4.140625 10.13671875 C4.09421875 10.75160156 4.0478125 11.36648437 4 12 C3.67 12 3.34 12 3 12 C2.01 8.04 1.02 4.08 0 0 Z " fill="#2F80C0" transform="translate(90,143)"/>
<path d="M0 0 C3.16115776 1.36983503 3.9927092 1.9890638 6 5 C5.625 7.1875 5.625 7.1875 5 9 C3.05731159 6.08596738 1.53604696 3.14191424 0 0 Z " fill="#5495C5" transform="translate(223,127)"/>
<path d="M0 0 C1.03115279 3.26913624 0.9638984 5.86041348 0.5625 9.25 C0.46066406 10.14203125 0.35882812 11.0340625 0.25390625 11.953125 C0.12822266 12.96632812 0.12822266 12.96632812 0 14 C-0.33 14 -0.66 14 -1 14 C-1.22142255 12.04310341 -1.4267568 10.08438048 -1.625 8.125 C-1.74101562 7.03445312 -1.85703125 5.94390625 -1.9765625 4.8203125 C-1.98429687 3.88960938 -1.99203125 2.95890625 -2 2 C-1.34 1.34 -0.68 0.68 0 0 Z " fill="#306089" transform="translate(29,119)"/>
<path d="M0 0 C4 4.625 4 4.625 4 8 C2.35 6.35 0.7 4.7 -1 3 C-0.67 2.01 -0.34 1.02 0 0 Z " fill="#4D8DC1" transform="translate(29,132)"/>
<path d="M0 0 C1.32 1.65 2.64 3.3 4 5 C2.35 5 0.7 5 -1 5 C-1.33 3.68 -1.66 2.36 -2 1 C-1.34 0.67 -0.68 0.34 0 0 Z " fill="#F4F4F4" transform="translate(146,115)"/>
<path d="M0 0 C1.3921875 0.3403125 1.3921875 0.3403125 2.8125 0.6875 C2.8125 1.0175 2.8125 1.3475 2.8125 1.6875 C0.8325 1.6875 -1.1475 1.6875 -3.1875 1.6875 C-3.8475 3.0075 -4.5075 4.3275 -5.1875 5.6875 C-5.5175 4.6975 -5.8475 3.7075 -6.1875 2.6875 C-4.14987265 -0.14253799 -3.59070275 -0.35202968 0 0 Z " fill="#4B8DBD" transform="translate(117.1875,110.3125)"/>
<path d="M0 0 C2.31 0 4.62 0 7 0 C7 0.99 7 1.98 7 3 C6.01 3.495 6.01 3.495 5 4 C2.375 2.625 2.375 2.625 0 1 C0 0.67 0 0.34 0 0 Z " fill="#F2F1F4" transform="translate(135,110)"/>
<path d="M0 0 C2.125 0.9375 2.125 0.9375 4 2 C1.35261084 3.4606285 0.10551666 4 -3 4 C-2.67 3.01 -2.34 2.02 -2 1 C-1.34 0.67 -0.68 0.34 0 0 Z " fill="#4E9AD7" transform="translate(235,158)"/>
<path d="M0 0 C1.98 0 3.96 0 6 0 C6 0.99 6 1.98 6 3 C4.35 3 2.7 3 1 3 C0.67 2.01 0.34 1.02 0 0 Z " fill="#3F99E1" transform="translate(98,160)"/>
<path d="M0 0 C2.46800047 1.15173355 4.04783565 2.04783565 6 4 C6.99 4 7.98 4 9 4 C8.67 4.66 8.34 5.32 8 6 C5.6875 5.8125 5.6875 5.8125 3 5 C1.1875 2.4375 1.1875 2.4375 0 0 Z " fill="#AEAEAE" transform="translate(151,142)"/>
<path d="M0 0 C0.66 0 1.32 0 2 0 C2 0.99 2 1.98 2 3 C2.66 3.33 3.32 3.66 4 4 C3.34 4 2.68 4 2 4 C2 5.98 2 7.96 2 10 C1.67 10 1.34 10 1 10 C0.67 6.7 0.34 3.4 0 0 Z " fill="#DADADA" transform="translate(143,137)"/>
<path d="M0 0 C1.65 1.32 3.3 2.64 5 4 C4.34 5.32 3.68 6.64 3 8 C2.67 6.68 2.34 5.36 2 4 C1.34 4 0.68 4 0 4 C0 2.68 0 1.36 0 0 Z " fill="#4E9CDF" transform="translate(108,130)"/>
<path d="M0 0 C0.66 0 1.32 0 2 0 C2 1.65 2 3.3 2 5 C1.01 5 0.02 5 -1 5 C-1 1 -1 1 0 0 Z " fill="#65ABE9" transform="translate(111,124)"/>
<path d="M0 0 C0 0.99 0 1.98 0 3 C-2.97 3 -5.94 3 -9 3 C-9 2.34 -9 1.68 -9 1 C-5.846632 0.29925156 -3.27275026 0 0 0 Z " fill="#79BCED" transform="translate(44,119)"/>
<path d="M0 0 C2.31 0 4.62 0 7 0 C6.360625 0.45375 5.72125 0.9075 5.0625 1.375 C2.90297594 2.83921726 2.90297594 2.83921726 2 5 C1.34 4.34 0.68 3.68 0 3 C0 2.01 0 1.02 0 0 Z " fill="#C8EFFC" transform="translate(73,112)"/>
</svg>
